<?xml version="1.0"?>
<svg xmlns="http://www.w3.org/2000/svg" xmlns:xlink="http://www.w3.org/1999/xlink" width="275" height="103.8"
	 viewBox="0 0 275 103.8" enable-background="new 0 0 275 103.8" xml:space="preserve">
<g>
	<g>
		<polyline fill="#F89E28" points="29,17.1 34.7,15.1 35.5,12.9 18.2,13 		"/>
		<polyline fill="#F37829" points="31.7,15.8 35.5,12.9 18.2,13 		"/>
		<polyline fill="#F89E28" points="33.4,15.4 40.6,14.8 42.6,13.9 31.2,2.3 		"/>
		<polyline fill="#F37829" points="37.5,15 42.6,13.9 31.2,2.3 		"/>
		<polyline fill="#F89E28" points="31.6,16.1 39.4,14.3 40.4,13.7 23,5.8 		"/>
		<polyline fill="#F37829" points="35.8,15.1 40.5,13.6 23,5.8 		"/>
		<polyline fill="#F37829" points="49.7,17.1 44,15.1 43.2,12.9 60.6,13 		"/>
		<polyline fill="#F89E28" points="47.1,15.8 43.2,12.9 60.6,13 		"/>
		<polyline fill="#F37829" points="45.3,15.4 38.1,14.8 36.1,13.9 47.6,2.3 		"/>
		<polyline fill="#F89E28" points="41.3,14.8 36.1,13.9 47.6,2.3 		"/>
		<polyline fill="#F37829" points="47.2,16.1 39.3,14.3 38.4,13.7 55.7,5.8 		"/>
		<polyline fill="#F89E28" points="43,15 38.3,13.6 55.7,5.8 		"/>
		<polyline fill="#F37829" points="43.9,14.6 42.2,14.3 40.5,14.1 39,14.1 37.3,14.2 34.8,14.7 39.4,0.2 		"/>
		<polyline fill="#F89E28" points="39.3,14.1 37,14.3 34.8,14.7 39.4,0.2 		"/>
		<path fill="#FFFFFF" d="M47.5,65.3c0.1,0,0.2-0.1,0.3-0.1c0.4-0.2,0.8-0.5,0.7-0.7C48.4,64.3,47.6,64.3,47.5,65.3L47.5,65.3
			 M43.9,65.1l-0.2,0c-0.5-0.1-1.1-0.1-1.2,0.1c-0.1,0.2,0.4,0.5,0.9,0.6c0.1,0,0.3,0.1,0.4,0.1l0,0L43.9,65.1L43.9,65.1"/>
		<path fill="#FFFFFF" d="M31.2,65.3c-0.1,0-0.2-0.1-0.3-0.1c-0.4-0.2-0.8-0.5-0.7-0.7C30.3,64.3,31.1,64.3,31.2,65.3L31.2,65.3
			 M34.8,65.1l0.2,0c0.5-0.1,1.1-0.1,1.2,0.1c0.1,0.2-0.4,0.5-0.9,0.6c-0.1,0-0.3,0.1-0.4,0.1l0,0L34.8,65.1L34.8,65.1"/>
		<polyline fill="#00562E" points="46.2,45.2 42.8,51.4 40.2,54 41.9,51.7 41.1,48.8 		"/>
		<polyline fill="#00562E" points="31.5,41.3 39.1,41.3 35.4,38.3 		"/>
		<polyline fill="#00562E" points="39.1,41.3 46.7,41.3 42.9,38.3 		"/>
		<polyline fill="#ED2D24" points="35.4,38.3 43,38.3 39.2,35.4 		"/>
		<polyline fill="#00562E" points="27.6,44.3 35.2,44.3 31.4,41.3 		"/>
		<polyline points="35.3,44.3 43,44.3 39.2,41.2 		"/>
		<polyline fill="#00562E" points="43,44.3 50.6,44.3 46.7,41.2 		"/>
		<path fill="#6A251E" d="M39,23.2c0,0,1.4,0.3,2,0.3c0.6,0,1.6-0.2,2.4-0.2c1.7,0,2.9,0.5,2.9,0.5s-1.1-0.1-2.4,0.1
			c-1.3,0.1-1.5,0.2-1.5,0.3c0,0.1,0.5,0,1,0c0.5,0,0.8-0.1,1.9,0c1.1,0,2.3,0.4,2.3,0.4s-1.1-0.2-3.1,0.1s-2,0.4-2,0.4
			s1.8,0,2.9,0.1c2.1,0.2,3.3,1.1,3.3,1.1s-1.7-0.5-3.7-0.4c-2,0-3-0.1-3.3-0.2c-0.1-0.1-0.3-0.1-0.1,0.1c0.1,0.1,0.5,0.1,0.9,0.2
			c0.4,0,1,0.1,2.1,0.3c1,0.2,2.6,0.7,3.1,1c0.5,0.3,1.9,1.1,1.9,1.1s-1.6-0.7-3.6-1c-2-0.3-2.9-0.5-3.4-0.6
			c-1.2-0.1-2.1-0.6-2.1-0.6s0.6-0.5,0.6-1.2c0-0.7-0.3-1.1-0.7-1.4C39.7,23.4,39,23.2,39,23.2"/>
		<path fill="#957044" d="M55.4,60.8c0.3-0.1,0.3,0.1,0.4,0.3c0.1,0.3,0.7,2,0.7,2s0.8,0.9,1.2,1.2c0.3,0.3,1.1,1.2,1.1,1.5
			c-0.1,0.3-0.3,0.6-0.6,0.6c-0.3,0-0.7-0.4-1.1-0.9c-0.3-0.5-0.5-1-0.7-1.3c-0.1-0.4-1.2-3-1.2-3C55.2,60.9,55.4,60.8,55.4,60.8"/>
		<path fill="#957044" d="M59.1,66.6c-0.2,0.3-0.4,0.5-0.1,0.9c0.3,0.4,0.5,0.6,0.9,0.6c0.4,0,1.2-0.8,1.4-2
			c0.2-1.2,0.2-1.2,0.2-1.7c0-0.5,0.2-2.2,0.2-2.2s0-0.3-0.2-0.3c-0.2,0-0.2,0.2-0.2,0.3l-0.1,1.8c0,0,0.1,0.1-0.2,0.4
			C60.7,64.8,59.1,66.6,59.1,66.6"/>
		<path fill="#957044" d="M58.9,70.4c-0.2,0.2-0.5,0.4-0.2,0.9c0.3,0.5,0.4,0.7,0.8,0.8c0.4,0.1,1.3-0.6,1.7-1.7
			c0.4-1.1,0.4-1.1,0.5-1.6c0.1-0.5,0.5-2.2,0.5-2.2s0-0.3-0.2-0.3c-0.2,0-0.3,0.1-0.3,0.2l-0.4,1.8c0,0,0.1,0.1-0.2,0.4
			C60.8,68.8,58.9,70.4,58.9,70.4"/>
		<path fill="#957044" d="M55.8,64.1c0.3-0.1,0.3,0.1,0.4,0.3c0.1,0.3,0.6,2.1,0.6,2.1s0.8,0.9,1.1,1.3c0.3,0.4,1.1,1.2,1,1.5
			c-0.1,0.3-0.3,0.5-0.6,0.5c-0.3,0-0.7-0.5-1-1c-0.3-0.5-0.5-1-0.6-1.4c-0.1-0.4-1-3.1-1-3.1C55.7,64.3,55.8,64.1,55.8,64.1"/>
		<path fill="#957044" d="M56.1,67.3c0.3-0.1,0.3,0.1,0.3,0.4c0,0.3,0.4,2.1,0.4,2.1s0.7,1,0.9,1.4c0.3,0.4,0.9,1.4,0.8,1.6
			c-0.1,0.3-0.4,0.5-0.7,0.5c-0.3-0.1-0.6-0.5-0.9-1.1c-0.3-0.5-0.4-1-0.4-1.5c-0.1-0.4-0.6-3.2-0.6-3.2
			C55.9,67.4,56.1,67.3,56.1,67.3"/>
		<path fill="#957044" d="M58.5,73.9c-0.2,0.2-0.5,0.4-0.3,0.9c0.2,0.5,0.3,0.7,0.8,0.8c0.4,0.1,1.3-0.5,1.8-1.6
			c0.5-1.1,0.4-1.1,0.6-1.6c0.1-0.5,0.6-2.1,0.6-2.1s0-0.3-0.2-0.3c-0.2,0-0.3,0.1-0.3,0.2l-0.5,1.7c0,0,0.1,0.1-0.2,0.4
			C60.6,72.4,58.5,73.9,58.5,73.9"/>
		<path fill="#957044" d="M56,71.1c0.3-0.1,0.3,0.1,0.3,0.4c0,0.3,0.2,2.2,0.2,2.2s0.6,1,0.8,1.4c0.2,0.4,0.8,1.4,0.7,1.7
			c-0.1,0.3-0.4,0.5-0.7,0.4c-0.3-0.1-0.6-0.6-0.8-1.2c-0.2-0.6-0.3-1.1-0.3-1.5c0-0.4-0.4-3.2-0.4-3.2C55.7,71.1,56,71.1,56,71.1"
			/>
		<path fill="#957044" d="M56.8,78.8c0,0.6,0.5,0.7,0.8,0.6c0.3,0,0.8-0.3,1.4-0.9c0.6-0.6,2.1-3.9,2.1-3.9s0.3-0.3,0-0.4
			c-0.3-0.1-0.3,0-0.3,0.1c-0.1,0.1-0.7,1.7-0.9,1.9c-0.2,0.2-1.5,1.2-2.1,1.6C57.3,78.2,56.8,78.8,56.8,78.8"/>
		<path fill="#957044" d="M55.2,81.6c0,0.3,0.2,0.9,0.7,0.8c0.4-0.1,1.1-0.3,1.8-1c0.7-0.7,1.2-1.5,1.5-1.9c0.3-0.4,0.8-0.9,0.8-0.9
			s0.1-0.2,0-0.3c-0.2-0.1-0.3-0.1-0.5,0.2c-0.2,0.2-0.9,1.3-1.1,1.5c-0.2,0.2-1.5,0.7-2,0.9C56,81,55.3,81.3,55.2,81.6"/>
		<path fill="#957044" d="M53,84.8c-0.1,0.4-0.1,1,0.9,0.8c0.9-0.2,1.7-0.8,2.1-1.2c0.4-0.3,1.1-1.2,1.4-1.5
			c0.3-0.4,0.7-0.7,0.8-0.8c0.1-0.1,0.1-0.2,0-0.3c-0.1-0.1-0.2-0.1-0.4,0.1c-0.2,0.2-0.9,1.1-1.3,1.4c-0.4,0.3-1.8,0.6-2.3,0.8
			C53.5,84.3,53.1,84.5,53,84.8"/>
		<path fill="#957044" d="M53.2,83c0.1,0.3,0.2,0.4,0.6,0.4c0.4,0,0.6-0.1,0.8-0.4c0.1-0.3-0.2-1.4-0.3-2.1
			c-0.1-0.6-0.2-0.9-0.1-1.2c0.1-0.3,0.3-0.7,0.3-0.9c0-0.2-0.2-0.3-0.3-0.1c-0.1,0.1-0.6,1.7-0.6,2.1c-0.1,0.3-0.3,1.3-0.3,1.6
			C53.1,82.6,53.2,83,53.2,83"/>
		<path fill="#957044" d="M55.3,80.5c0.2,0.2,0.3,0.3,0.7,0.2c0.4-0.1,0.6-0.3,0.6-0.5c0.1-0.3-0.5-1.3-0.8-1.9
			c-0.3-0.6-0.4-0.8-0.4-1.2c0-0.3,0.1-0.7,0.1-0.9c0-0.2-0.3-0.3-0.3-0.1c-0.1,0.1-0.1,1.9-0.1,2.2c0,0.3,0,1.4,0.1,1.6
			C55.2,80.1,55.3,80.5,55.3,80.5"/>
		<path fill="#957044" d="M50.1,87.6c-0.1,0.4-0.2,0.9,0.7,0.9c0.9-0.1,1.8-0.6,2.2-0.9c0.4-0.3,1.3-1,1.6-1.4
			c0.4-0.3,0.7-0.6,0.9-0.7c0.1-0.1,0.1-0.2,0-0.3c-0.1-0.1-0.2-0.1-0.4,0c-0.2,0.1-1,1-1.4,1.2c-0.4,0.3-1.9,0.4-2.4,0.5
			C50.7,87.2,50.1,87.6,50.1,87.6"/>
		<path fill="#957044" d="M50.5,86.1c0,0.3,0.1,0.4,0.5,0.5c0.4,0.1,0.6,0,0.8-0.2c0.2-0.2,0.1-1.4,0.1-2.1c0-0.6,0-0.9,0.1-1.2
			c0.2-0.3,0.4-0.6,0.5-0.8c0.1-0.2-0.1-0.3-0.2-0.3c-0.1,0-0.9,1.7-1.1,2c-0.1,0.3-0.6,1.2-0.6,1.5C50.5,85.7,50.5,86.1,50.5,86.1"
			/>
		<path fill="#957044" d="M48.1,88.7c0,0.3,0.1,0.6,0.5,0.6c0.4,0.1,0.7-0.1,0.9-0.3c0.2-0.2,0.1-1.4,0.1-2.1c0-0.6,0-0.9,0.1-1.2
			c0.2-0.3,0.4-0.6,0.5-0.8c0.1-0.2-0.1-0.3-0.2-0.3c-0.1,0-1,1.6-1.1,2c-0.1,0.3-0.6,1.2-0.6,1.5C48.1,88.2,48.1,88.7,48.1,88.7"/>
		<path fill="#957044" d="M41.2,92.8c0,0,2.3,0.1,6.2-1.7c2.8-1.4,3-1.6,3-1.6s0.1-0.2,0-0.3c0-0.1-0.2-0.2-0.4,0
			c-0.2,0.1-0.7,0.5-1.2,0.7c-0.4,0.1-0.8,0.1-1-0.1c-0.4-0.4-0.3-1.6-0.3-1.6s-1.1,1.4-2.7,2.5C43.2,91.6,41.2,92.8,41.2,92.8"/>
		<path fill="#957044" d="M58,58.1c0.2,0,0.2,0.1,0.2,0.2l1,6.4c0,0-1.2-0.7-1.3-1.4c-0.1-0.7,0.4-1.7,0.4-2c0-0.2-0.4-3-0.4-3
			S57.8,58.1,58,58.1"/>
		<path fill="#957044" d="M58.8,58.2c0.2,0,0.2,0.1,0.3,0.3c0,0.1,0.4,2.5,0.4,2.5s1.1,1.7,1.2,2.1c0.1,0.4-0.1,0.8-0.4,1.1
			c-0.3,0.3-0.6,0.5-0.6,0.5l-1-6.3L58.8,58.2"/>
		<path fill="#957044" d="M23.2,60.8c-0.3-0.1-0.3,0.1-0.4,0.3c-0.1,0.3-0.7,2-0.7,2s-0.8,0.9-1.2,1.2c-0.3,0.3-1.1,1.2-1.1,1.5
			c0.1,0.3,0.3,0.6,0.6,0.6c0.3,0,0.7-0.4,1.1-0.9c0.3-0.5,0.5-1,0.7-1.3c0.1-0.4,1.2-3,1.2-3C23.4,60.9,23.2,60.8,23.2,60.8"/>
		<path fill="#957044" d="M19.5,66.6c0.2,0.3,0.4,0.5,0.1,0.9c-0.3,0.4-0.5,0.6-0.9,0.6s-1.2-0.8-1.4-2C17,65,17.1,65,17.1,64.5
			c0-0.5-0.2-2.2-0.2-2.2s0-0.3,0.2-0.3c0.2,0,0.2,0.2,0.2,0.3l0.1,1.8c0,0-0.1,0.1,0.2,0.4C17.9,64.8,19.5,66.6,19.5,66.6"/>
		<path fill="#957044" d="M19.7,70.4c0.2,0.2,0.5,0.4,0.2,0.9c-0.3,0.5-0.4,0.7-0.8,0.8c-0.4,0.1-1.3-0.6-1.7-1.7
			c-0.4-1.1-0.4-1.1-0.5-1.6c-0.1-0.5-0.5-2.2-0.5-2.2s0-0.3,0.2-0.3c0.2,0,0.3,0.1,0.3,0.2l0.4,1.8c0,0-0.1,0.1,0.2,0.4
			C17.8,68.8,19.7,70.4,19.7,70.4"/>
		<path fill="#957044" d="M22.8,64.1c-0.3-0.1-0.3,0.1-0.4,0.3c-0.1,0.3-0.6,2.1-0.6,2.1s-0.8,0.9-1.1,1.3c-0.3,0.4-1.1,1.2-1,1.5
			c0.1,0.3,0.3,0.5,0.6,0.5c0.3,0,0.7-0.5,1-1c0.3-0.5,0.5-1,0.6-1.4c0.1-0.4,1-3.1,1-3.1C22.9,64.3,22.8,64.1,22.8,64.1"/>
		<path fill="#957044" d="M22.5,67.3c-0.3-0.1-0.3,0.1-0.3,0.4c0,0.3-0.4,2.1-0.4,2.1s-0.7,1-0.9,1.4c-0.3,0.4-0.9,1.4-0.8,1.6
			c0.1,0.3,0.4,0.5,0.7,0.5c0.3-0.1,0.6-0.5,0.9-1.1c0.3-0.5,0.4-1,0.4-1.5c0.1-0.4,0.6-3.2,0.6-3.2C22.7,67.4,22.5,67.3,22.5,67.3"
			/>
		<path fill="#957044" d="M20.1,73.9c0.2,0.2,0.5,0.4,0.3,0.9c-0.2,0.5-0.3,0.7-0.8,0.8c-0.4,0.1-1.3-0.5-1.8-1.6
			c-0.5-1.1-0.4-1.1-0.6-1.6c-0.1-0.5-0.6-2.1-0.6-2.1s0-0.3,0.2-0.3c0.2,0,0.3,0.1,0.3,0.2l0.5,1.7c0,0-0.1,0.1,0.2,0.4
			C18.1,72.4,20.1,73.9,20.1,73.9"/>
		<path fill="#957044" d="M22.7,71.1c-0.3-0.1-0.3,0.1-0.3,0.4c0,0.3-0.2,2.2-0.2,2.2s-0.6,1-0.8,1.4c-0.2,0.4-0.8,1.4-0.7,1.7
			c0.1,0.3,0.4,0.5,0.7,0.4c0.3-0.1,0.6-0.6,0.8-1.2c0.2-0.6,0.3-1.1,0.3-1.5c0-0.4,0.4-3.2,0.4-3.2C22.9,71.1,22.7,71.1,22.7,71.1"
			/>
		<path fill="#957044" d="M21.8,78.8c0,0.6-0.5,0.7-0.8,0.6c-0.3,0-0.8-0.3-1.4-0.9c-0.6-0.6-2.1-3.9-2.1-3.9s-0.3-0.3,0-0.4
			c0.3-0.1,0.3,0,0.3,0.1c0.1,0.1,0.7,1.7,0.9,1.9c0.2,0.2,1.5,1.2,2.1,1.6C21.3,78.2,21.8,78.8,21.8,78.8"/>
		<path fill="#957044" d="M23.4,81.6c0,0.3-0.2,0.9-0.7,0.8c-0.4-0.1-1.1-0.3-1.9-1c-0.7-0.7-1.2-1.5-1.5-1.9
			c-0.3-0.4-0.8-0.9-0.8-0.9s-0.1-0.2,0-0.3c0.2-0.1,0.3-0.1,0.5,0.2c0.2,0.2,0.9,1.3,1.1,1.5c0.2,0.2,1.5,0.7,2,0.9
			C22.7,81,23.3,81.3,23.4,81.6"/>
		<path fill="#957044" d="M25.7,84.8c0.1,0.4,0.1,1-0.9,0.8c-0.9-0.2-1.7-0.8-2.1-1.2s-1.1-1.2-1.4-1.5c-0.3-0.4-0.7-0.7-0.8-0.8
			c-0.1-0.1-0.1-0.2,0-0.3c0.1-0.1,0.2-0.1,0.4,0.1c0.2,0.2,0.9,1.1,1.3,1.4c0.4,0.3,1.8,0.6,2.4,0.8C25.1,84.3,25.5,84.5,25.7,84.8
			"/>
		<path fill="#957044" d="M25.5,83c-0.1,0.3-0.2,0.4-0.6,0.4c-0.4,0-0.6-0.1-0.8-0.4c-0.1-0.3,0.2-1.4,0.3-2.1
			c0.1-0.6,0.2-0.9,0.1-1.2c-0.1-0.3-0.3-0.7-0.3-0.9c0-0.2,0.2-0.3,0.3-0.1c0.1,0.1,0.6,1.7,0.6,2.1c0.1,0.3,0.3,1.3,0.3,1.6
			C25.5,82.6,25.5,83,25.5,83"/>
		<path fill="#957044" d="M23.3,80.5c-0.2,0.2-0.3,0.3-0.7,0.2c-0.4-0.1-0.6-0.3-0.6-0.5c-0.1-0.3,0.5-1.3,0.8-1.9
			c0.3-0.6,0.4-0.8,0.4-1.2c0-0.3-0.1-0.7-0.1-0.9c0-0.2,0.3-0.3,0.3-0.1c0.1,0.1,0.1,1.9,0.1,2.2c0,0.3,0,1.4-0.1,1.6
			C23.4,80.1,23.3,80.5,23.3,80.5"/>
		<path fill="#957044" d="M28.5,87.6c0.1,0.4,0.2,0.9-0.7,0.9c-0.9-0.1-1.8-0.6-2.2-0.9c-0.4-0.3-1.3-1-1.6-1.4
			c-0.4-0.3-0.7-0.6-0.9-0.7c-0.1-0.1-0.1-0.2,0-0.3c0.1-0.1,0.2-0.1,0.4,0c0.2,0.1,1,1,1.4,1.2c0.4,0.3,1.9,0.4,2.4,0.5
			C27.9,87.2,28.5,87.6,28.5,87.6"/>
		<path fill="#957044" d="M28.1,86.1c0,0.3-0.2,0.4-0.5,0.5c-0.4,0.1-0.6,0-0.8-0.2c-0.2-0.2-0.1-1.4-0.1-2.1c0-0.6,0-0.9-0.1-1.2
			c-0.2-0.3-0.4-0.6-0.5-0.8c-0.1-0.2,0.1-0.3,0.2-0.3c0.1,0,0.9,1.7,1.1,2c0.1,0.3,0.6,1.2,0.6,1.5C28.1,85.7,28.1,86.1,28.1,86.1"
			/>
		<path fill="#957044" d="M30.5,88.7c0,0.3-0.1,0.6-0.5,0.6c-0.4,0.1-0.7-0.1-0.9-0.3c-0.2-0.2-0.1-1.4-0.1-2.1c0-0.6,0-0.9-0.1-1.2
			c-0.2-0.3-0.4-0.6-0.5-0.8s0.1-0.3,0.2-0.3c0.1,0,1,1.6,1.1,2c0.1,0.3,0.6,1.2,0.6,1.5C30.5,88.2,30.5,88.7,30.5,88.7"/>
		<path fill="#957044" d="M37.4,92.8c0,0-2.3,0.1-6.2-1.7c-2.8-1.4-3-1.6-3-1.6s-0.1-0.2,0-0.3c0-0.1,0.2-0.2,0.4,0
			c0.2,0.1,0.7,0.5,1.2,0.7c0.4,0.1,0.8,0.1,1-0.1c0.4-0.4,0.3-1.6,0.3-1.6s1.1,1.4,2.7,2.5C35.4,91.6,37.4,92.8,37.4,92.8"/>
		<path fill="#957044" d="M20.6,58.1c-0.2,0-0.2,0.1-0.2,0.2l-1,6.4c0,0,1.2-0.7,1.3-1.4c0.1-0.7-0.4-1.7-0.4-2c0-0.2,0.4-3,0.4-3
			S20.8,58.1,20.6,58.1"/>
		<path fill="#957044" d="M19.9,58.2c-0.2,0-0.2,0.1-0.3,0.3c0,0.1-0.4,2.5-0.4,2.5s-1.1,1.7-1.2,2.1c-0.1,0.4,0.1,0.8,0.4,1.1
			c0.3,0.3,0.6,0.5,0.6,0.5l1-6.3L19.9,58.2"/>
		<path fill="#9C5925" d="M35.1,37.4l4.1-3.2l2.2,1.7c0,0,0.6-1,0.8-2.1c0.2-1.1,0.2-2,0.2-2s-1,0-1.8-0.4c-1.3-0.6-2.1-2.2-2.1-2.2
			s0.1,0.9-0.2,2.4c-0.4,1.5-1,2.5-1.6,3.1C36,35.4,35.1,37.4,35.1,37.4"/>
		<path fill="#9C5925" d="M39.5,27.5c0,0,0.2,1.5,0.9,2.4c0.8,0.9,1.8,1.5,1.8,1.5s-0.1-1.6-0.5-2.3C41.4,28.5,39.5,27.5,39.5,27.5"
			/>
		<path fill="#E1B668" d="M43,31.3c0,0,0,1.8-0.3,2.8c-0.3,1-0.9,2.3-0.9,2.3L44,38c0,0,2.1-0.2,3.4-0.5c1.3-0.3,2.3-0.5,2.8-1.1
			c0.7-0.7,0.2-1.6,0.2-1.6s1.7-0.8,2.5-1.4c1.2-0.9,0.6-1.7,0.6-1.7s1.3-0.3,2.2-0.8c1.5-0.8,0.9-1.5,0.9-1.5s1.9-0.2,3.4-0.8
			c1.1-0.4,0.9-1,0.9-1.4c-0.1-0.4-0.4-1.6-1.2-2.7c-0.8-1.1-1.3-1.7-1.8-1.8c-0.5,0-1.3,1.7-1.5,2c-0.2,0.3-2.7,4.3-5.8,7
			c-3.1,2.7-5.2,3.5-5.9,3.5c-0.6-0.1-0.8-1.4-0.9-1.8C43.7,33.2,43,31.3,43,31.3"/>
		<path fill="#C3812A" d="M31.9,26.9c0,0,0.2-0.4,0.5-0.7c0.2-0.2,0.3-0.2,0.6-0.2c0.3,0,3.1,0.4,3.6,0.5c0.5,0.1,0.9,0.3,1.1,0.5
			c0.2,0.2,0.4,0.7,0.6,1c0.1,0.3,0.7,1.6,1.5,2.3c1.3,1.2,2.2,1.2,2.2,1.2s-0.6-0.2-1.3-0.8c-0.7-0.6-1.2-1.5-1.3-2.3
			c-0.2-0.8-0.2-1-0.3-1.4c0-0.1,0-0.2,0-0.2l0.1,0l0.4,0.3c0.1,0.1,1.7,1,1.8,1.1c0.2,0.1,1.2,1,1.8,2.2c0.6,1.2,0.6,1.7,0.8,2.4
			c0.2,0.7,0.4,0.8,0.4,0.8s0.2-0.8,0-1.8c-0.2-1-0.5-2-1-2.6c-0.5-0.6-0.9-1.1-0.9-1.1s0.8,0.3,2.3,0.8c1.6,0.4,2.1,0.6,2.9,0.9
			c0.9,0.3,2.2,0.9,2.2,0.9s-0.5-0.6-1.8-1.3c-1.4-0.7-2.4-1.2-3.4-1.6c-1-0.3-2.2-0.7-2.7-0.8c-1-0.2-1.7-0.7-1.7-0.7
			s0.5-0.4,0.5-1.1c0.1-0.7-0.2-1.3-0.7-1.5c-0.5-0.3-0.8-0.4-1.3-0.5c-0.5-0.1-1.7-0.2-2.1-0.2c-0.4,0-0.8,0-1.1,0.3
			c-0.3,0.2-0.6,0.6-0.6,0.8c0,0-1.5,0.3-2,0.6c-0.5,0.3-0.9,0.5-1.2,1.2C31.7,26.6,31.9,26.9,31.9,26.9"/>
		<polyline fill="#00562E" points="39.3,45.2 37.4,51.9 39.3,54.4 41,51.9 		"/>
		<polyline fill="#00562E" points="32.1,45.2 35.5,51.4 38.1,54 36.5,51.7 37.3,48.8 		"/>
		<polyline fill="#00562E" points="36.1,53.1 35,52.1 33.5,49.3 25.3,45.9 32.5,51.4 		"/>
		<polyline fill="#C3812A" points="26,45.2 32.7,48 31.2,45.2 		"/>
		<polyline fill="#C3812A" points="33.6,45.2 37.5,48 38.3,45.2 		"/>
		<polyline fill="#00562E" points="42.3,53.1 43.4,52.1 44.9,49.3 53.1,45.9 45.9,51.4 		"/>
		<polyline fill="#C3812A" points="52.4,45.2 45.7,48 47.2,45.2 		"/>
		<polyline fill="#C3812A" points="44.8,45.2 40.9,48 40.1,45.2 		"/>
		<polyline fill="#F89E28" points="43,38.3 35.3,38.3 39.1,41.3 		"/>
		<polyline fill="#F89E28" points="39.2,41.3 31.4,41.3 35.2,44.3 		"/>
		<polyline fill="#F89E28" points="46.7,41.3 39.1,41.3 43,44.4 		"/>
		<polyline fill="#FFFFFF" points="47.2,78.7 47.1,78.6 47.1,78.5 47.1,78.5 46.1,78.7 46.1,78.7 46,78.7 46,78.9 46,78.9 46,78.9 
			47.1,78.7 47.1,78.7 47.2,78.7 		"/>
		<polyline fill="#FFFFFF" points="44.3,72.7 44.4,72.7 44.4,72.7 46.1,71.6 46.1,71.5 46.1,71.5 46,71.4 46,71.4 45.9,71.4 
			44.3,72.5 44.2,72.6 44.3,72.7 		"/>
		<polyline fill="#FFFFFF" points="42.7,78.9 42.6,79.1 42.6,79.1 42.7,79.1 43.9,78.8 44,78.8 44,78.8 44,78.7 43.9,78.6 
			43.9,78.6 42.7,78.9 42.7,78.9 42.7,78.9 		"/>
		<polyline fill="#FFFFFF" points="31.6,78.7 31.7,78.6 31.7,78.5 31.7,78.5 32.7,78.7 32.7,78.7 32.8,78.7 32.8,78.9 32.8,78.9 
			32.8,78.9 31.7,78.7 31.7,78.7 31.6,78.7 		"/>
		<polyline fill="#FFFFFF" points="34.5,72.7 34.4,72.7 34.4,72.7 32.7,71.6 32.7,71.5 32.7,71.5 32.8,71.4 32.8,71.4 32.9,71.4 
			34.5,72.5 34.6,72.6 34.5,72.7 		"/>
		<polyline fill="#FFFFFF" points="36.1,78.9 36.2,79.1 36.2,79.1 36.1,79.1 34.9,78.8 34.8,78.8 34.8,78.8 34.8,78.7 34.9,78.6 
			34.9,78.6 36.1,78.9 36.1,78.9 36.1,78.9 		"/>
		<polyline fill="#FFFFFF" points="40,65 40,65.1 40.1,65.1 40.1,65.1 40.7,64.7 40.8,64.7 40.7,64.6 40.7,64.5 40.6,64.5 
			40.6,64.5 40,65 40,65 40,65 		"/>
		<polyline fill="#FFFFFF" points="39.8,64.8 39.9,64.8 39.9,64.8 39.9,64.8 40.5,64.4 40.5,64.4 40.5,64.4 40.4,64.2 40.4,64.2 
			40.3,64.2 39.8,64.7 39.8,64.7 39.8,64.8 		"/>
		<polyline fill="#FFFFFF" points="38.8,65 38.8,65.1 38.7,65.1 38.7,65.1 38,64.7 38,64.7 38,64.6 38.1,64.5 38.2,64.5 38.2,64.5 
			38.8,65 38.8,65 38.8,65 		"/>
		<polyline fill="#FFFFFF" points="39,64.8 38.9,64.8 38.9,64.8 38.9,64.8 38.3,64.4 38.3,64.4 38.3,64.4 38.4,64.2 38.4,64.2 
			38.5,64.2 39,64.7 39,64.7 39,64.8 		"/>
		<path d="M51,53.7l-9.4,1.7l10.3,1.8c0,0,0.4,0.1,0.4,0.5c-0.1,0.4-0.5,0.3-0.5,0.3l-12.5-2.2L27,58c0,0-0.4,0.1-0.5-0.3
			c-0.1-0.4,0.4-0.5,0.4-0.5L37,55.4l-8.4-1.5l0.2-0.7L39.3,55l12.6-2.2c0.2,0,0.3-0.1,0.4-0.1c1.5-0.4,1.6-0.8,2.2-1.9
			c0.2-0.2,0.4-0.5,1-0.5c1.2,0,2.5,0.5,2.7,1.6c0.2,1.1-0.7,2-2,2.5c-0.6,0.3-0.9,0.1-1.1-0.1c-1-0.8-1.1-1.2-2.7-0.9L52,53.6"/>
		<path fill="#6A251E" d="M39.2,56.5l13,2.4c1.3,3,2.1,6.3,2.1,9.6c0,9.4-5.8,18.4-14.5,22.8l-0.4,0.2L39,91.3
			c-8.7-4.4-14.5-13.4-14.5-22.8c0-3.4,0.7-6.7,2.1-9.7L39.2,56.5"/>
		<path fill="#E1B668" d="M25.9,68.5c0-3,0.6-6,1.7-8.7l11.6-2.2l12,2.2c1.1,2.7,1.7,5.6,1.7,8.6c0,7.7-3.9,14.7-10.1,19.3
			c0,0-0.9,0.8-1.7,1.3c-0.8,0.5-1.7,0.9-1.7,0.9s-0.9-0.5-2-1.1c-1.1-0.7-1.5-1.1-1.5-1.1C29.8,83.2,25.9,76.2,25.9,68.5"/>
		<path fill="none" d="M39.2,57.7l-11.6,2.2c-1.1,2.7-1.7,5.6-1.7,8.7c0,7.7,3.9,14.7,10.1,19.3c0,0,0.4,0.4,1.5,1.1
			c1.1,0.7,2,1.1,2,1.1s0.9-0.4,1.7-0.9c0.8-0.5,1.7-1.3,1.7-1.3c6.2-4.6,10.1-11.6,10.1-19.3c0-3-0.6-5.9-1.7-8.6
			C51.3,59.9,39.4,57.7,39.2,57.7L39.2,57.7"/>
		<path fill="none" stroke="#E2B768" stroke-width="5.500000e-02" stroke-miterlimit="3.864" d="M25.9,68.5c0-3,0.6-6,1.7-8.7
			l11.6-2.2l12,2.2c1.1,2.7,1.7,5.6,1.7,8.6c0,7.7-3.9,14.7-10.1,19.3c0,0-0.9,0.8-1.7,1.3c-0.8,0.5-1.7,0.9-1.7,0.9s-0.9-0.5-2-1.1
			c-1.1-0.7-1.5-1.1-1.5-1.1C29.8,83.2,25.9,76.2,25.9,68.5z"/>
		<path fill="#E1B668" d="M18.9,83.5c-5.5-8.9-6.8-21.2-3-31.6c0.9-2.6,2-4.9,3.3-7.2c0.2-0.4,0.9-1.3,0.4-1.5c-0.2-0.1-1,0.7-1.3,1
			c-2.9,3.4-5,7.2-6.6,11.8c-3.4,9.4-3,19.3,0.3,27.8C12.6,85.5,18.9,84.1,18.9,83.5"/>
		
			<path fill="none" stroke="#FFFFFF" stroke-width="0.383" stroke-linecap="round" stroke-linejoin="round" stroke-miterlimit="3.864" d="
			M18.9,83.5c-5.5-8.9-6.8-21.2-3-31.6c0.9-2.6,2-4.9,3.3-7.2c0.2-0.4,0.9-1.3,0.4-1.5c-0.2-0.1-1,0.7-1.3,1
			c-2.9,3.4-5,7.2-6.6,11.8c-3.4,9.4-3,19.3,0.3,27.8C12.6,85.5,18.9,84.1,18.9,83.5z"/>
		<path fill="#C79F6A" d="M16.3,83.7C9.5,73.3,7,62.6,10,50.4c0.7-3,1.7-5.9,2.9-8.6c0.1-0.3,0.8-1.5,0.4-1.6
			c-0.4-0.3-1.1,0.8-1.4,1.2c-2.7,4.1-4.8,8.8-6,14C3.5,66,5.1,74.9,9.8,83.5C10.2,84.4,17.6,85.5,16.3,83.7"/>
		
			<path fill="none" stroke="#FFFFFF" stroke-width="0.383" stroke-linecap="round" stroke-linejoin="round" stroke-miterlimit="3.864" d="
			M16.3,83.7C9.5,73.3,7,62.6,10,50.4c0.7-3,1.7-5.9,2.9-8.6c0.1-0.3,0.8-1.5,0.4-1.6c-0.4-0.3-1.1,0.8-1.4,1.2
			c-2.7,4.1-4.8,8.8-6,14C3.5,66,5.1,74.9,9.8,83.5C10.2,84.4,17.6,85.5,16.3,83.7z"/>
		<path d="M27.2,53.9c0,0-1.8-0.2-2.1,0.3c-0.3,0.5-7.5-2.5-7.5-2.5s7.2,1.2,9.3,1.7C29.1,54,27.2,53.9,27.2,53.9"/>
		<path d="M27.5,52.8c0,0-1.8-0.4-1.9-1c-0.1-0.5-7.9-0.1-7.9-0.1s7.2,1.2,9.5,1.4C29.3,53.3,27.5,52.8,27.5,52.8"/>
		<path fill="#C3812A" d="M59.2,23.2c0.3,0.3,2.3,2.5,2.2,5.2c2.5,0.5,6.9,0,7.6-0.1c3.2-0.6,6.6-1.6,7.6-2.2
			c0.8-0.4,0.9-0.9,1.3-2.1c0.6-1.7-2.2-0.3-5.2,0.9c-2,0.8-3.2,1.3-4,1.5c0-0.2,0-0.3,0-0.5c2-0.9,8.2-3.5,9.3-4.3
			c1.2-0.9,0.7-2.7,0.3-2.8c-0.2-0.1-5.4,2.9-9.5,5.3c0-0.1,0-0.3,0-0.4c2-1.2,4.2-2.5,5.8-3.5c4.6-3,4.2-2.4,3.9-4.4
			c-0.3-1.6-1.6,0-1.6,0l-1.5,1.3c0,0-4.2,3.4-6.8,5.3c0-0.1-0.1-0.3-0.1-0.4c2.5-2.1,6.5-5.5,7.3-6.4c1.1-1.2,2.7-1.8,1.6-3.9
			c-0.5-0.9-0.7-1.5-1.1-1.3c-0.4,0.6-0.8,1-1.1,1.4c-2.2,2.9-5,6-7.2,8.4c-0.1-0.2-0.1-0.3-0.2-0.5c1.4-1.5,2.8-3.1,3.7-4.2
			c4.2-5.6,4.7-6,4.1-7.3c-0.3-0.6-1.5-2.2-1.8-2.1c0,0.8-1,2.8-2.6,5.1c-2.2,3.3-3.5,5.2-4.5,6.6c-0.1-0.2-0.3-0.4-0.4-0.6
			c2.7-4.4,6.2-10.2,6.3-11.5c0-1-0.2-1.7-1.7-2.8c-0.5-0.4-1.6-0.8-2-0.6c1.1,1.7-0.3,5.3-0.5,5.9c-1,2.6-2.3,5.1-3.4,7.3
			c-0.1-0.2-0.3-0.3-0.5-0.4c1.3-2.8,2.7-6,3.1-7.9c0.7-3.2-0.1-5.7-2.7-6.9c-1.1,8.4-3.5,15.9-6.6,21.9l0.1,0.1
			C58.3,22.2,58.7,22.5,59.2,23.2"/>
		<path fill="#C3812A" d="M19.6,23.2c-0.3,0.3-2.3,2.5-2.2,5.2c-2.5,0.5-6.9,0-7.6-0.1c-3.2-0.6-6.6-1.6-7.6-2.2
			c-0.8-0.4-0.9-0.9-1.3-2.1c-0.6-1.7,2.2-0.3,5.2,0.9c2,0.8,3.2,1.3,4,1.5c0-0.2,0-0.3,0-0.5c-2-0.9-8.2-3.5-9.3-4.3
			c-1.2-0.9-0.7-2.7-0.3-2.8c0.2-0.1,5.4,2.9,9.5,5.3c0-0.1,0-0.3,0-0.4C8,22.4,5.9,21,4.3,20c-4.6-3-4.2-2.4-3.9-4.4
			c0.3-1.6,1.6,0,1.6,0l1.5,1.3c0,0,4.2,3.4,6.8,5.3c0-0.1,0.1-0.3,0.1-0.4c-2.5-2.1-6.5-5.5-7.3-6.4c-1.1-1.2-2.7-1.8-1.6-3.9
			C2,10.5,2.2,10,2.6,10.1c0.4,0.6,0.8,1,1.1,1.4c2.2,2.9,5,6,7.2,8.4c0.1-0.2,0.1-0.3,0.2-0.5c-1.4-1.5-2.8-3.1-3.7-4.2
			c-4.2-5.6-4.7-6-4.1-7.3c0.3-0.6,1.5-2.2,1.8-2.1c0,0.8,1,2.8,2.6,5.1c2.2,3.3,3.5,5.2,4.5,6.6c0.1-0.2,0.3-0.4,0.4-0.6
			C9.9,12.6,6.4,6.8,6.3,5.5c0-1,0.2-1.7,1.7-2.8c0.5-0.4,1.6-0.8,2-0.6C9,3.7,10.3,7.4,10.6,8c1,2.6,2.3,5.1,3.4,7.3
			c0.1-0.2,0.3-0.3,0.5-0.4c-1.3-2.8-2.7-6-3.1-7.9c-0.7-3.2,0.1-5.7,2.7-6.9c1.1,8.4,3.5,15.9,6.7,21.9L20.7,22
			C20.5,22.2,20.1,22.5,19.6,23.2"/>
		<path fill="#00562E" d="M19.3,84.7c4.5,6.7,11.9,11,20.1,11c8.2,0,15.5-4.3,20.1-11l0.1-0.1l0.2,0.1c1.3,0.5,2.9,0.8,4.6,0.8
			c1.4,0,2.7-0.2,3.8-0.5c-5.4,11.2-16.3,18.8-28.7,18.8c-12.5,0-23.3-7.6-28.7-18.9c1.1,0.3,2.4,0.5,3.8,0.5c1.7,0,3.4-0.3,4.6-0.8
			L19.3,84.7L19.3,84.7"/>
		<path fill="#9C5925" d="M33.8,38.4c-2.2-0.3-3.3-0.5-3.8-0.7c-3.1-0.8-2.2-2.4-2.2-2.4c-3.9-1.5-3.1-3-3.1-3
			c-3.6-1-3.1-2.2-3.1-2.2c-1.7-0.1-2.8-0.5-3.4-1.1c-0.2-0.1-0.2-0.1-0.3-0.1c-0.1,0-2.9,0.9-11.3-0.6c-1.7-0.3-3.7-0.7-4.1-0.8
			c0.2,0.5,0.2,0.8,0.5,1.3c0.1,0.2,0.2,0.4,0.5,0.8c0.3,0.4,1.2,0.8,1.9,0.9c1.6,0.4,4.6,0.1,6.2,0c0.1,0.2,0.2,0.3,0.2,0.4
			c-2.1,0.3-4.4,0.5-6.9,0.6c0.4,0.6,0.9,1.2,1.7,1.7c1.6,0.6,4.3-0.2,6.2-0.8c0.1,0.1,0.2,0.3,0.3,0.4c-1.5,0.6-5,1.3-5.8,1.5
			c0.4,0.5,1,1.3,1.9,1.4c1.1,0.2,4.2-1,5.1-1.4l0.3,0.3c-1,0.6-4.6,1.8-5,1.9c0.4,0.4,1.2,1.2,2.3,1.2c1.8-0.3,3.5-1.3,4.3-1.7
			c0.1,0.1,0.2,0.2,0.4,0.3c-1.1,0.7-2.4,1.4-4.2,2.1c0.4,0.3,0.9,0.8,1.7,1c1.7,0.5,3.2-0.7,4.7-1.6c0.1,0.1,0.3,0.2,0.4,0.2
			c-0.6,0.6-1.8,1.3-3.7,2.3c0.3,0.3,1.4,0.7,2,0.9c1.9,0.1,3.3-1.1,4.3-1.8l0.4,0.2c-1,0.8-1.7,1.2-3.4,2.3c0.4,0.3,1,0.6,1.9,0.7
			c1.6,0.2,3.1-1,4.2-1.9c0.1,0.1,0.3,0.1,0.4,0.2c-0.4,0.3-2.1,1.6-3.3,2.3c0,0,0.9,0.8,2.5,0.7c2.8,0.1,5.4-2.2,5.4-2.2"/>
		<path fill="#9C5925" d="M49.1,41.6c0,0,2.7,2.3,5.4,2.2c1.5,0.1,2.4-0.7,2.5-0.7c-1.2-0.7-2.9-1.9-3.3-2.3
			c0.1-0.1,0.3-0.1,0.4-0.2c1.1,0.9,2.6,2,4.2,1.9c0.9-0.1,1.5-0.5,1.9-0.7c-1.6-1-2.3-1.4-3.4-2.3l0.4-0.2c1,0.7,2.4,1.9,4.3,1.8
			c0.6-0.1,1.7-0.5,2-0.9c-1.9-0.9-3-1.7-3.7-2.3c0.1-0.1,0.3-0.2,0.4-0.2c1.5,0.9,3.1,2.1,4.7,1.6c0.8-0.2,1.3-0.7,1.7-1
			c-1.8-0.7-3.2-1.5-4.2-2.1c0.1-0.1,0.2-0.2,0.4-0.3c0.8,0.4,2.5,1.4,4.3,1.7c1.1,0,1.9-0.8,2.3-1.2c-0.4-0.1-4-1.2-5-1.9l0.3-0.3
			c0.9,0.4,4,1.6,5.1,1.4c1-0.1,1.5-0.8,1.9-1.4c-0.8-0.1-4.3-0.9-5.8-1.5c0.1-0.1,0.2-0.3,0.3-0.4c1.9,0.6,4.6,1.5,6.2,0.8
			c0.7-0.5,1.2-1.1,1.7-1.7c-2.6-0.1-4.9-0.2-6.9-0.6c0.1-0.1,0.2-0.3,0.2-0.4c1.6,0.1,4.6,0.4,6.2,0c0.6-0.2,1.6-0.5,1.9-0.9
			c0.3-0.4,0.4-0.7,0.5-0.8c0.3-0.5,0.4-0.7,0.5-1.3C76,27.6,74,28,72.3,28.3C63.9,29.7,61,28.9,61,28.9c-0.1,0-0.1,0-0.3,0.1
			c-0.6,0.5-1.7,1-3.4,1.1c0,0,0.5,1.2-3.1,2.2c0,0,0.8,1.5-3.1,3c0,0,0.9,1.7-2.2,2.4c-0.6,0.1-2.1,0.5-4.3,0.8"/>
		<path fill="#E1B668" d="M34.2,38c-1-0.1-2.3-0.3-3.6-0.6c-3.3-0.7-2.2-2.4-2.2-2.4c-4.4-1.7-3.2-3.1-3.2-3.1c-4.2-1.1-3-2.3-3-2.3
			c-2.6-0.1-4.4-1.2-4.4-1.7c0-1,0.4-2.4,1.8-4.1c1.1-1.3,1.4-1.4,2-0.3c3.1,5.3,6.9,9.3,11.1,11.3c0.2,0.1,0.6,0.2,1.1,0.4
			c0.5,0.2,1,0.1,1.4,0"/>
		<path fill="#FFFFFF" d="M17,91.4l0.4,0.4l0.4-0.3l-0.4-0.4 M17.6,90.9l0.3,0.3l2.1-1.8L19.7,89L17.6,90.9z"/>
		<polyline fill="#FFFFFF" points="18.5,93.1 18.8,93.4 20.1,92.1 20.1,92.1 19.4,94 19.8,94.4 20.5,92.3 22.3,91.7 21.9,91.3 
			20.2,92 20.2,92 21.3,90.8 21,90.4 		"/>
		<polyline fill="#FFFFFF" points="21,95.3 22.1,96.1 22.3,95.8 21.6,95.3 22.4,94.3 23,94.8 23.3,94.4 22.6,93.9 23.3,93 24,93.5 
			24.3,93.2 23.2,92.4 		"/>
		<polyline fill="#FFFFFF" points="25,98 26.2,98.6 26.4,98.3 25.7,97.9 26.2,96.8 27,97.2 27.2,96.8 26.4,96.4 27,95.4 27.7,95.8 
			27.9,95.4 26.7,94.8 		"/>
		<path fill="#FFFFFF" d="M28.7,96.4l0.6,0.2l0.2-0.6L29,95.8 M27.6,99.3l0.6,0.2l0.2-0.6l-0.6-0.2L27.6,99.3z"/>
		<polyline fill="#FFFFFF" points="31,100.5 31.4,100.6 33.4,97.3 33,97.2 		"/>
		<polyline fill="#FFFFFF" points="33.8,101.1 34.3,101.2 35,100 35.3,101.4 35.9,101.4 35.4,99.5 36.4,97.8 35.9,97.8 35.2,99 
			34.9,97.6 34.4,97.5 34.9,99.4 		"/>
		<path fill="#FFFFFF" d="M38.4,98.5L38.4,98.5l0.3,1.8l-0.6,0 M37.3,101.6l0.5,0l0.2-0.9l0.8,0l0.2,0.9l0.5,0L38.8,98l-0.6,0
			L37.3,101.6z"/>
		<path fill="#FFFFFF" d="M41.2,98.3l0.2,0c0.3,0,0.3,0,0.4,0.6c0,0.5,0,0.6-0.4,0.7l-0.1,0 M41,101.5l0.5,0l-0.1-1.6l0.2,0
			c0.3,0,0.4,0.1,0.4,0.4l0.1,0.8c0,0.1,0,0.2,0.1,0.3l0.5,0c0-0.1-0.1-0.3-0.1-0.5l-0.1-0.8c0-0.3-0.2-0.5-0.5-0.5l0,0
			c0.4-0.2,0.4-0.4,0.4-0.9c-0.1-0.8-0.2-1-0.9-0.9l-0.8,0.1L41,101.5z"/>
		<path fill="#FFFFFF" d="M44.1,97.9l0.2-0.1c0.3-0.1,0.3,0,0.5,0.5c0.1,0.5,0.1,0.6-0.3,0.7l-0.1,0 M44.3,101.2l0.5-0.1l-0.3-1.6
			l0.2,0c0.3-0.1,0.4,0,0.5,0.3l0.2,0.8c0,0.1,0.1,0.2,0.1,0.3l0.5-0.1c-0.1-0.1-0.1-0.3-0.1-0.4l-0.2-0.8c-0.1-0.3-0.2-0.5-0.6-0.4
			l0,0c0.4-0.2,0.4-0.4,0.3-0.9c-0.2-0.8-0.3-1-1-0.8l-0.8,0.2L44.3,101.2z"/>
		<path fill="#FFFFFF" d="M47.4,97.1L47.4,97.1l0.9,1.6l-0.6,0.2 M47.3,100.4l0.5-0.2l-0.1-0.9l0.7-0.2l0.4,0.8l0.5-0.2l-1.8-3.2
			l-0.6,0.2L47.3,100.4z"/>
		<polyline fill="#FFFFFF" points="51.7,94.6 52.5,98.4 52.9,98.1 52,94.4 		"/>
		<polyline fill="#FFFFFF" points="54.9,97 55.2,96.7 54,93.1 53.7,93.3 		"/>
		<polyline fill="#FFFFFF" points="57.2,95.2 57.6,94.9 56.4,93.5 56.5,93.5 58.2,94.4 58.7,94 56.7,93.1 56.3,91.3 55.9,91.6 
			56.4,93.4 56.3,93.4 55.3,92.1 54.9,92.4 		"/>
		<polyline fill="#FFFFFF" points="59.8,92.9 60.7,91.9 60.4,91.7 59.8,92.3 58.9,91.4 59.4,90.9 59.1,90.6 58.6,91.2 57.7,90.4 
			58.3,89.7 58,89.5 57.1,90.5 		"/>
		<path fill="#E1B668" d="M59.9,83.5c5.5-8.9,6.8-21.2,3-31.6c-0.9-2.6-2-4.9-3.3-7.2c-0.2-0.4-0.9-1.3-0.4-1.5c0.2-0.1,1,0.7,1.3,1
			c2.9,3.4,5,7.2,6.6,11.8c3.4,9.4,3,19.3-0.3,27.8C66.1,85.5,59.8,84.1,59.9,83.5"/>
		
			<path fill="none" stroke="#FFFFFF" stroke-width="0.383" stroke-linecap="round" stroke-linejoin="round" stroke-miterlimit="3.864" d="
			M59.9,83.5c5.5-8.9,6.8-21.2,3-31.6c-0.9-2.6-2-4.9-3.3-7.2c-0.2-0.4-0.9-1.3-0.4-1.5c0.2-0.1,1,0.7,1.3,1c2.9,3.4,5,7.2,6.6,11.8
			c3.4,9.4,3,19.3-0.3,27.8C66.1,85.5,59.8,84.1,59.9,83.5z"/>
		<path fill="#C79F6A" d="M62.5,83.7c6.8-10.5,9.3-21.1,6.3-33.4c-0.7-3-1.7-5.9-2.9-8.6c-0.1-0.3-0.8-1.5-0.4-1.6
			c0.4-0.3,1.1,0.8,1.4,1.2c2.7,4.1,4.8,8.8,6,14c2.5,10.6,0.9,19.5-3.9,28.2C68.6,84.4,61.1,85.5,62.5,83.7"/>
		
			<path fill="none" stroke="#FFFFFF" stroke-width="0.383" stroke-linecap="round" stroke-linejoin="round" stroke-miterlimit="3.864" d="
			M62.5,83.7c6.8-10.5,9.3-21.1,6.3-33.4c-0.7-3-1.7-5.9-2.9-8.6c-0.1-0.3-0.8-1.5-0.4-1.6c0.4-0.3,1.1,0.8,1.4,1.2
			c2.7,4.1,4.8,8.8,6,14c2.5,10.6,0.9,19.5-3.9,28.2C68.6,84.4,61.1,85.5,62.5,83.7z"/>
		<path fill="#6A251E" d="M44.4,83c-0.1,0.4-0.5,0.5-0.5,0.5C43,83.7,42.6,84,42.6,84c-0.3,0.2-0.1,0.4-0.1,0.4c0.1,0.1,0.9,0,0.9,0
			c0.9-0.1,1-0.2,1-0.2c0.4-0.2,1.5-1.7,1.5-1.7c1.4-1.7,1.4-3.2,1.3-3.5l0,0l0,0l0,0l-1.2,0.2l0,0l0,0c-0.3,0.7-0.6,1.7-0.6,1.7"/>
		<path fill="#6A251E" d="M41.5,82.5L41.5,82.5l-0.1,0.1l0.1,0.1l0,0.1L41.3,83c-0.3,0.2-0.6,0.3-1.1,0.7c0,0-0.2,0.1-0.1,0.3
			c0.1,0.2,0.5,0,0.5,0s0.7-0.3,1.1-0.4c0,0,0.4,0,0.5-0.3c0,0,0.1-0.2,0.2-0.4l0,0l0.2-0.1l0-0.1l0,0l0-0.1l0,0l0,0l0.2-0.1l0-0.1
			l0,0l0-0.1l0,0l0,0l0.2-0.1l0-0.1l0,0c0.5-0.8,1.5-2.2,1.2-3l0-0.1L44,79l-1.4,0.3l-0.1,0.1c-0.2,0.6-0.4,1.3-0.7,2.2
			c0,0,0,0.1-0.1,0.3l0,0L41.6,82l0.1,0.1l0,0.1l0,0l-0.1,0h0l-0.1,0.1l0.1,0.1L41.5,82.5L41.5,82.5L41.5,82.5"/>
		<path fill="#6A251E" d="M47.8,63.8c-0.1-0.1-0.2-0.4-1.4-0.5c0,0-0.3,0-0.2-0.6c0,0,0-0.2,0.3-0.4c0,0,0.4-0.2,0.5-0.5l0-0.1
			c0-0.1,0-0.5-0.4-0.7l-0.2,0l-0.1-0.1h-0.1l-0.1,0l-0.1-0.1l-0.1,0l-0.1,0l-0.1-0.1l-0.1-0.1l-0.1,0l-0.1,0.1h0l-0.1-0.1l-0.1-0.1
			l-0.1,0.1l0,0.1l-0.1,0L45,60.5c0,0-0.1,0-0.2,0.1c0,0,0,0.1,0,0.5c0,0.2,0,0.3,0,0.3c-0.3,0.4-0.4,0.6-0.4,0.7v0l0,0
			c0,0.1,0.1,0.4,0.3,0.6c0,0,0.1,0.1,0.3,0l0.1-0.1l0.1,0l0,0.5c0,0,0,0.1-0.2,0c0,0-1-0.2-1.7,0.8c0,0-0.2,0.2-0.3,0.4l0,0.1
			c0.1,0,0.3,0,0.4,0c0.1,0,0.3,0.1,0.4,0.1l0,0l0,0.1l0,0c-0.1,0-0.4-0.1-0.9-0.1c0,0-0.8,0-0.9,0.5c0,0,0,0.2,0.3,0.5l0.1,0.1
			l-0.1,0.2l0,0l-0.1,0.3l-0.1,0.2l-0.1-0.1c-0.2-0.4-1-1.2-1.2-1.4l-0.1,0l-0.1,0l-0.7,0.4l0,0l0,0.1c0.7,1.4,1.1,1.5,1.1,1.5
			s0.5,0.5,1,0.5c0.3,0,0.8-0.5,1.1-0.9c0.1-0.1,0.3-0.3,0.4-0.4l0.2,0l0,0c0,0.2-0.3,2.4-0.1,4.2c0,0,0.1,1.7,0.3,2.1l0.1,0
			l1.7-1.2l0,0c0-0.2,0.5-1.8,0.7-3c0,0,0.4-1.7,0.7-2.6l0,0l0.1,0c0.1,0,0.4-0.1,0.6-0.2c0,0,0.3-0.1,0.5-0.3c0,0,0.3-0.3,0.3-0.6
			c0,0,0-0.4-0.6-0.3l0,0L47.8,63.8"/>
		<path fill="#6A251E" d="M39.4,64.4c0,0,0.1,0,0.3,0.1h0.2c0.2-0.1,0.3-0.3,0.4-0.4c0.1-0.1,0.1-0.3-0.1-0.5c0,0-0.3-0.3-0.5-0.2
			l-0.2,0.1c0,0,0,0-0.2,0c0,0-0.2,0-0.4,0.2c0,0-0.2,0.3-0.1,0.5c0,0,0.1,0.1,0.3,0.2L39.4,64.4"/>
		<path fill="#6A251E" d="M47.5,65.7L47.5,65.7c0,0.3,0.1,0.6,0.1,0.6c0.2,0.4,0.9,1.3,0.9,1.3c0.3,0.3,0.2,0.8,0.2,0.8
			c0,0.4,0.1,1.1,0.1,1.1c0.1,0.6,0.3,1.1,0.3,1.3l0.1,0l0.6-0.1l0.1,0l0-0.1c0-0.4,0-1.3,0-1.3c0-0.6-0.5-1.6-0.5-1.6
			c-0.1-0.3-0.2-0.6-0.2-0.6c0-0.2-0.1-1-0.1-1c-0.1-0.6-0.3-0.9-0.4-1l-0.1,0c-0.2,0.1-0.3,0.3-0.6,0.4
			C47.9,65.6,47.7,65.7,47.5,65.7"/>
		<path fill="#6A251E" d="M49.3,71.2L49.3,71.2L49.3,71.2c-0.1,0-0.2,0.1-0.2,0.2c0,0.1,0,0.8,0.3,0.9c0,0,0.2,0.1,0.4,0.1
			c0,0,0.2,0,0.5-0.3c0,0,0.2-0.1,0-0.4l-0.2-0.2c-0.2-0.1-0.2-0.3-0.2-0.3s0-0.1-0.2-0.1l-0.1-0.1L49.5,71L49.3,71.2"/>
		<path fill="#6A251E" d="M46.2,71.7l-1.6,1.1c-0.1,0.1-0.1,0.1,0,0.2c0,0.1,0,0.6-0.2,1c-0.2,0.3-0.5,0.9-0.8,1.9
			c-0.3,0.7-0.4,1.2-0.4,1.7l0,0.2l0,0.1c0,0-0.1,0.2-0.3,0.7l0,0l0,0l1.1-0.2l0,0l0,0l0.1-0.3c0,0,0.5-0.5,0.7-0.8
			c0,0,0.4-0.5,0.8-1.7c0,0,0.6-1.5,1.2-1.7c0.6-0.2,1.1-0.6,0.8-1.3c0,0-0.2-0.7-0.9-1C46.7,71.7,46.3,71.6,46.2,71.7"/>
		<path fill="#6A251E" d="M47.1,78.3c0-0.3,0.1-0.7,0.1-0.7s0.2-0.5,0.1-1.1c0-0.6-0.5-2-0.6-2.3l0,0h0c-0.6,0.2-1.1,1.6-1.2,1.8
			l0,0.1c0.1,0.6,0.5,1.5,0.5,1.5c0.1,0.5,0.1,0.8,0.1,0.8l0,0.1l0,0L47.1,78.3L47.1,78.3L47.1,78.3"/>
		<path fill="#6A251E" d="M34.4,83c0.1,0.4,0.5,0.5,0.5,0.5c0.9,0.3,1.3,0.5,1.3,0.5c0.3,0.2,0.1,0.4,0.1,0.4c-0.1,0.1-0.9,0-0.9,0
			c-0.9-0.1-1-0.2-1-0.2c-0.3-0.2-1.5-1.7-1.5-1.7c-1.4-1.7-1.4-3.2-1.3-3.5l0,0l0,0l0,0l1.2,0.2l0,0l0,0c0.3,0.7,0.6,1.7,0.6,1.7"
			/>
		<path fill="#6A251E" d="M37.2,82.5L37.2,82.5l0.1,0.1l-0.1,0.1l0,0.1l0.2,0.2c0.3,0.2,0.6,0.3,1.1,0.7c0,0,0.2,0.1,0.1,0.3
			c-0.1,0.2-0.5,0-0.5,0s-0.7-0.3-1.1-0.4c0,0-0.4,0-0.5-0.3c0,0-0.1-0.2-0.2-0.4l0,0l-0.2-0.1l0-0.1l0,0l0-0.1l0,0l0,0L36,82.6
			l0-0.1l0,0l0-0.1l0,0l0,0l-0.2-0.1l0-0.1l0,0c-0.5-0.8-1.5-2.2-1.2-3l0-0.1l0.1,0l1.4,0.3l0.1,0.1c0.2,0.6,0.4,1.3,0.7,2.2
			c0,0,0,0.1,0.1,0.3l0,0l0.1,0.1l-0.1,0.1l0,0.1l0,0l0,0h0l0.1,0.1l-0.1,0.1L37.2,82.5L37.2,82.5L37.2,82.5"/>
		<path fill="#6A251E" d="M30.9,63.8c0.1-0.1,0.2-0.4,1.4-0.5c0,0,0.3,0,0.2-0.6c0,0,0-0.2-0.3-0.4c0,0-0.4-0.2-0.5-0.5l0-0.1
			c0-0.1,0-0.5,0.4-0.7l0.2,0l0.1-0.1h0.1l0.1,0l0.1-0.1l0.1,0l0.1,0l0.1-0.1l0.1-0.1l0.1,0l0.1,0.1h0l0.1-0.1l0.1-0.1l0.1,0.1
			l0,0.1l0.1,0l0.2-0.1c0,0,0.1,0,0.2,0.1c0,0,0,0.1,0,0.5c0,0.2,0,0.3,0,0.3c0.3,0.4,0.4,0.6,0.4,0.7v0l0,0c0,0.1-0.1,0.4-0.3,0.6
			c0,0-0.1,0.1-0.3,0l-0.1-0.1l-0.1,0l0,0.5c0,0,0,0.1,0.2,0c0,0,1-0.2,1.7,0.8c0,0,0.2,0.2,0.3,0.4l0,0.1c-0.1,0-0.3,0-0.4,0
			c-0.1,0-0.3,0.1-0.4,0.1l0,0l0,0.1l0,0c0.1,0,0.4-0.1,0.9-0.1c0,0,0.8,0,0.9,0.5c0,0,0,0.2-0.3,0.5l-0.1,0.1l0.1,0.2l0,0l0.1,0.3
			l0.1,0.2l0.1-0.1c0.2-0.4,1-1.2,1.2-1.4l0.1,0l0.1,0l0.7,0.4l0,0l0,0.1c-0.7,1.4-1.1,1.5-1.1,1.5s-0.5,0.5-1,0.5
			c-0.3,0-0.8-0.5-1.1-0.9c-0.1-0.1-0.3-0.3-0.4-0.4l-0.2,0l0,0c0,0.2,0.3,2.4,0.1,4.2c0,0-0.1,1.7-0.3,2.1l-0.1,0l-1.7-1.2l0,0
			c0-0.2-0.5-1.8-0.7-3c0,0-0.4-1.7-0.7-2.6l0,0l-0.1,0c-0.1,0-0.4-0.1-0.6-0.2c0,0-0.3-0.1-0.5-0.3c0,0-0.3-0.3-0.3-0.6
			c0,0,0-0.4,0.6-0.3l0,0L30.9,63.8"/>
		<path fill="#6A251E" d="M39.4,64.4c0,0-0.1,0-0.3,0.1H39c-0.2-0.1-0.3-0.3-0.4-0.4c-0.1-0.1-0.1-0.3,0.1-0.5c0,0,0.3-0.3,0.5-0.2
			l0.2,0.1c0,0,0,0,0.2,0c0,0,0.2,0,0.4,0.2c0,0,0.2,0.3,0.1,0.5c0,0-0.1,0.1-0.3,0.2L39.4,64.4"/>
		<path fill="#6A251E" d="M31.3,65.7L31.3,65.7c0,0.3-0.1,0.6-0.1,0.6c-0.2,0.4-0.9,1.3-0.9,1.3c-0.3,0.3-0.2,0.8-0.2,0.8
			c0,0.4,0,1.1,0,1.1c-0.1,0.6-0.3,1.1-0.3,1.3l-0.1,0L29,70.8l-0.1,0l0-0.1c0-0.4,0-1.3,0-1.3c0-0.6,0.5-1.6,0.5-1.6
			c0.1-0.3,0.2-0.6,0.2-0.6c0-0.2,0.1-1,0.1-1c0.1-0.6,0.3-0.9,0.4-1l0.1,0c0.2,0.1,0.3,0.3,0.6,0.4C30.9,65.6,31.1,65.7,31.3,65.7"
			/>
		<path fill="#6A251E" d="M29.5,71.2L29.5,71.2L29.5,71.2c0.1,0,0.2,0.1,0.2,0.2c0,0.1,0,0.8-0.3,0.9c0,0-0.2,0.1-0.4,0.1
			c0,0-0.2,0-0.5-0.3c0,0-0.2-0.1,0-0.4l0.2-0.2c0.2-0.1,0.2-0.3,0.2-0.3s0-0.1,0.2-0.1l0.1-0.1l0.2-0.1L29.5,71.2"/>
		<path fill="#6A251E" d="M32.6,71.7l1.6,1.1c0.1,0.1,0.1,0.1,0,0.2c0,0.1,0,0.6,0.2,1c0.2,0.3,0.5,0.9,0.8,1.9
			c0.3,0.7,0.4,1.2,0.4,1.7l0,0.2l0,0.1c0,0,0.1,0.2,0.3,0.7l0,0l0,0l-1.1-0.2l0,0l0,0l-0.1-0.3c0,0-0.5-0.5-0.7-0.8
			c0,0-0.4-0.5-0.8-1.7c0,0-0.6-1.5-1.2-1.7c-0.6-0.2-1.1-0.6-0.8-1.3c0,0,0.2-0.7,0.9-1C32.1,71.7,32.5,71.6,32.6,71.7"/>
		<path fill="#6A251E" d="M31.6,78.3c0-0.3-0.1-0.7-0.1-0.7s-0.2-0.5-0.2-1.1c0-0.6,0.5-2,0.6-2.3l0,0h0c0.6,0.2,1.1,1.6,1.2,1.8
			l0,0.1c-0.1,0.6-0.5,1.5-0.5,1.5c-0.1,0.5-0.1,0.8-0.1,0.8l0,0.1l0,0L31.6,78.3L31.6,78.3L31.6,78.3"/>
		<polyline fill="#FFFFFF" points="42.7,78.9 42.6,79.1 42.6,79.1 42.6,79.1 43.9,78.9 44,78.8 44,78.8 44,78.7 43.9,78.7 
			43.9,78.7 42.7,78.9 42.7,78.9 42.7,78.9 		"/>
		<polyline fill="#FFFFFF" points="47.1,78.7 47.1,78.6 47.1,78.6 47.1,78.5 46.1,78.7 46,78.7 46,78.7 46,78.9 46,78.9 46,78.9 
			47.1,78.7 47.1,78.7 47.1,78.7 		"/>
		<polyline fill="#FFFFFF" points="40,65 40,65.1 40,65.2 40.1,65.1 40.7,64.7 40.8,64.7 40.7,64.6 40.6,64.6 40.6,64.5 40.6,64.6 
			40,65 40,65 40,65 		"/>
		<polyline fill="#FFFFFF" points="39.8,64.8 39.9,64.9 39.9,64.9 39.9,64.9 40.5,64.4 40.5,64.4 40.5,64.4 40.4,64.3 40.4,64.2 
			40.3,64.3 39.8,64.7 39.8,64.7 39.8,64.8 		"/>
		<polyline fill="#FFFFFF" points="44.3,72.7 44.4,72.8 44.4,72.7 46.1,71.6 46.1,71.6 46.1,71.5 46,71.4 46,71.4 45.9,71.4 
			44.3,72.6 44.2,72.6 44.3,72.7 		"/>
		<polyline fill="#FFFFFF" points="36.1,78.9 36.1,79.1 36.1,79.1 36.1,79.1 34.8,78.9 34.8,78.8 34.8,78.8 34.8,78.7 34.8,78.7 
			34.9,78.7 36,78.9 36.1,78.9 36.1,78.9 		"/>
		<polyline fill="#FFFFFF" points="31.6,78.7 31.6,78.6 31.7,78.6 31.7,78.5 32.7,78.7 32.7,78.7 32.7,78.7 32.8,78.9 32.8,78.9 
			32.8,78.9 31.7,78.7 31.6,78.7 31.6,78.7 		"/>
		<polyline fill="#FFFFFF" points="38.8,65 38.8,65.1 38.7,65.2 38.7,65.1 38,64.7 38,64.7 38,64.6 38.1,64.6 38.2,64.5 38.2,64.6 
			38.8,65 38.8,65 38.8,65 		"/>
		<polyline fill="#FFFFFF" points="39,64.8 38.9,64.9 38.9,64.9 38.9,64.9 38.3,64.4 38.3,64.4 38.3,64.4 38.4,64.3 38.4,64.2 
			38.4,64.3 38.9,64.7 39,64.7 39,64.8 		"/>
		<polyline fill="#FFFFFF" points="34.5,72.7 34.4,72.8 34.4,72.7 32.7,71.6 32.7,71.6 32.7,71.5 32.8,71.4 32.8,71.4 32.9,71.4 
			34.5,72.6 34.5,72.6 34.5,72.7 		"/>
		<path fill="#FFFFFF" d="M44,65.1L43.8,65c-0.5-0.1-1.1-0.1-1.2,0.1c-0.1,0.2,0.4,0.5,0.9,0.6c0.1,0,0.3,0.1,0.4,0.1l0,0L44,65.1
			L44,65.1"/>
		<path fill="#FFFFFF" d="M47.5,65.3c0.1,0,0.2-0.1,0.3-0.1c0.4-0.2,0.8-0.5,0.7-0.7C48.4,64.3,47.6,64.3,47.5,65.3L47.5,65.3"/>
		<path fill="#FFFFFF" d="M34.8,65.1L35,65c0.5-0.1,1.1-0.1,1.2,0.1c0.1,0.2-0.4,0.5-0.9,0.6c-0.1,0-0.3,0.1-0.4,0.1l0,0L34.8,65.1
			L34.8,65.1"/>
		<path fill="#FFFFFF" d="M31.3,65.3c-0.1,0-0.2-0.1-0.3-0.1c-0.4-0.2-0.8-0.5-0.7-0.7C30.3,64.3,31.2,64.3,31.3,65.3L31.3,65.3"/>
		<path fill="#F37829" d="M27.2,18.3c3.6-2.8,7.5-4.5,12.2-4.5c4.7,0,8.6,1.6,12.2,4.5c-3.8-2-7.9-2.8-12.5-2.8
			C34.6,15.6,31,16.4,27.2,18.3"/>
		<path fill="#6A251E" d="M35.5,25.5c-0.6,0.1-1.3,0-1.3,0s0.5-0.5,0.6-0.7c0.4-0.5,1.1-0.8,1.8-0.9c1.3-0.2,1.7,0.3,1.7,0.3
			s-0.7,0.7-0.9,1.6C37.4,25.8,36.2,25.4,35.5,25.5"/>
		<path fill="#FFFFFF" d="M35.9,24.7c0-0.3,0.3-0.5,0.8-0.5c0.4,0,0.8,0.2,0.8,0.5c0,0.3-0.3,0.5-0.8,0.5
			C36.3,25.2,35.9,24.9,35.9,24.7"/>
		<path d="M37,24.6c0-0.2-0.1-0.3-0.3-0.3c-0.2,0-0.3,0.1-0.3,0.3c0,0.2,0.1,0.3,0.3,0.3C36.8,24.9,37,24.8,37,24.6"/>
	</g>
	<g>
		<polyline points="97.5,55.8 274.3,55.8 274.3,57.3 97.5,57.3 		"/>
		<polyline points="97.5,83.8 97.5,75 98.6,75 98.6,78.6 103.2,78.6 103.2,75 104.3,75 104.3,83.8 103.2,83.8 103.2,79.7 98.6,79.7 
			98.6,83.8 		"/>
		<path d="M106.1,83.8h1.1v-6.3h-1.1V83.8z M106.1,76.3h1.1V75h-1.1V76.3z"/>
		<path d="M109.4,80.5c0,0.8,0.2,1.4,0.5,1.8c0.3,0.4,0.7,0.6,1.2,0.6c0.5,0,0.9-0.2,1.2-0.6c0.3-0.4,0.5-1,0.5-1.8
			c0-0.8-0.2-1.4-0.5-1.8c-0.3-0.4-0.8-0.6-1.2-0.6c-0.5,0-0.9,0.2-1.2,0.6C109.6,79.2,109.4,79.7,109.4,80.5 M108.5,84.3l1,0.2
			c0,0.3,0.2,0.6,0.4,0.7c0.3,0.2,0.6,0.3,1.1,0.3c0.5,0,0.9-0.1,1.2-0.3c0.3-0.2,0.5-0.5,0.5-0.8c0.1-0.2,0.1-0.7,0.1-1.4
			c-0.5,0.6-1.1,0.8-1.8,0.8c-0.9,0-1.5-0.3-2-0.9c-0.5-0.6-0.7-1.4-0.7-2.3c0-0.6,0.1-1.2,0.3-1.7c0.2-0.5,0.5-0.9,0.9-1.2
			c0.4-0.3,0.9-0.4,1.5-0.4c0.7,0,1.4,0.3,1.8,0.9v-0.8h1v5.5c0,1-0.1,1.7-0.3,2.1c-0.2,0.4-0.5,0.7-1,1c-0.4,0.2-1,0.4-1.6,0.4
			c-0.8,0-1.4-0.2-1.8-0.5C108.7,85.5,108.5,85,108.5,84.3"/>
		<path d="M115.4,83.8V75h1.1v3.1c0.5-0.6,1.1-0.9,1.9-0.9c0.5,0,0.9,0.1,1.2,0.3c0.3,0.2,0.6,0.4,0.7,0.8c0.2,0.3,0.2,0.8,0.2,1.4
			v4h-1.1v-4c0-0.5-0.1-0.9-0.4-1.2c-0.2-0.2-0.6-0.4-1-0.4c-0.3,0-0.6,0.1-0.9,0.3c-0.3,0.2-0.5,0.4-0.6,0.7
			c-0.1,0.3-0.2,0.7-0.2,1.2v3.5"/>
		<path d="M123,80h3.5c0-0.5-0.2-0.9-0.4-1.2c-0.3-0.4-0.8-0.6-1.3-0.6c-0.5,0-0.9,0.2-1.2,0.5C123.2,79,123,79.4,123,80
			 M126.5,81.7l1.1,0.1c-0.2,0.6-0.5,1.2-1,1.5c-0.5,0.4-1.1,0.5-1.8,0.5c-0.9,0-1.7-0.3-2.2-0.9c-0.5-0.6-0.8-1.4-0.8-2.4
			c0-1.1,0.3-1.9,0.8-2.5c0.5-0.6,1.3-0.9,2.1-0.9c0.8,0,1.5,0.3,2.1,0.9c0.5,0.6,0.8,1.4,0.8,2.4c0,0.1,0,0.2,0,0.3h-4.7
			c0,0.7,0.2,1.2,0.6,1.6c0.4,0.4,0.8,0.6,1.3,0.6c0.4,0,0.7-0.1,1-0.3C126.1,82.5,126.4,82.2,126.5,81.7"/>
		<path d="M128.9,83.8v-6.3h1v1c0.2-0.4,0.5-0.7,0.7-0.9c0.2-0.1,0.4-0.2,0.7-0.2c0.4,0,0.7,0.1,1.1,0.3l-0.4,1
			c-0.3-0.2-0.5-0.2-0.8-0.2c-0.2,0-0.4,0.1-0.6,0.2c-0.2,0.1-0.3,0.3-0.4,0.6c-0.1,0.4-0.2,0.8-0.2,1.3v3.3"/>
		<polyline points="136.4,83.8 136.4,75 142.8,75 142.8,76.1 137.6,76.1 137.6,78.7 142.4,78.7 142.4,79.8 137.6,79.8 137.6,82.7 
			143,82.7 143,83.8 		"/>
		<path d="M145.1,80.6c0,0.8,0.2,1.4,0.5,1.8c0.3,0.4,0.7,0.6,1.2,0.6c0.5,0,0.9-0.2,1.2-0.6c0.3-0.4,0.5-1,0.5-1.8
			c0-0.9-0.2-1.5-0.5-1.9c-0.3-0.4-0.7-0.6-1.2-0.6c-0.5,0-0.9,0.2-1.2,0.6C145.2,79.2,145.1,79.8,145.1,80.6 M148.5,83.8V83
			c-0.4,0.6-1,0.9-1.8,0.9c-0.5,0-1-0.1-1.4-0.4c-0.4-0.3-0.8-0.7-1-1.2c-0.2-0.5-0.3-1.1-0.3-1.7c0-0.6,0.1-1.2,0.3-1.7
			c0.2-0.5,0.5-0.9,1-1.2c0.4-0.3,0.9-0.4,1.4-0.4c0.4,0,0.7,0.1,1,0.2c0.3,0.2,0.5,0.4,0.7,0.6V75h1.1v8.7H148.5z"/>
		<path d="M155.3,83.8v-0.9c-0.5,0.7-1.2,1.1-2,1.1c-0.4,0-0.7-0.1-1.1-0.2c-0.3-0.1-0.6-0.3-0.7-0.5c-0.2-0.2-0.3-0.5-0.3-0.8
			c0-0.2-0.1-0.5-0.1-1v-3.9h1.1V81c0,0.6,0,0.9,0.1,1.1c0.1,0.3,0.2,0.5,0.4,0.7c0.2,0.2,0.5,0.2,0.8,0.2c0.3,0,0.6-0.1,0.9-0.2
			c0.3-0.2,0.5-0.4,0.6-0.7c0.1-0.3,0.2-0.7,0.2-1.2v-3.4h1.1v6.3"/>
		<path d="M162,81.5l1.1,0.1c-0.1,0.7-0.4,1.3-0.9,1.7c-0.5,0.4-1.1,0.6-1.7,0.6c-0.9,0-1.6-0.3-2.1-0.8c-0.5-0.6-0.8-1.4-0.8-2.4
			c0-0.7,0.1-1.3,0.3-1.8c0.2-0.5,0.6-0.9,1-1.2c0.5-0.3,1-0.4,1.5-0.4c0.7,0,1.3,0.2,1.7,0.5c0.4,0.3,0.7,0.8,0.8,1.5l-1,0.2
			c-0.1-0.4-0.3-0.7-0.5-1c-0.3-0.2-0.6-0.3-0.9-0.3c-0.5,0-1,0.2-1.3,0.6c-0.3,0.4-0.5,1-0.5,1.8c0,0.9,0.2,1.5,0.5,1.9
			c0.3,0.4,0.8,0.6,1.3,0.6c0.4,0,0.8-0.1,1.1-0.4C161.7,82.4,161.9,82,162,81.5"/>
		<path d="M167.9,80.6c-0.4,0.2-1,0.3-1.8,0.4c-0.4,0.1-0.8,0.1-0.9,0.2c-0.2,0.1-0.3,0.2-0.4,0.4c-0.1,0.2-0.1,0.3-0.1,0.5
			c0,0.3,0.1,0.5,0.3,0.7c0.2,0.2,0.5,0.3,1,0.3c0.4,0,0.8-0.1,1.1-0.3c0.3-0.2,0.6-0.4,0.7-0.7c0.1-0.2,0.2-0.6,0.2-1.1 M168,83
			c-0.4,0.3-0.8,0.6-1.2,0.7c-0.4,0.1-0.8,0.2-1.2,0.2c-0.7,0-1.2-0.2-1.6-0.5c-0.4-0.3-0.6-0.8-0.6-1.3c0-0.3,0.1-0.6,0.2-0.8
			c0.1-0.3,0.3-0.5,0.6-0.6c0.2-0.2,0.5-0.3,0.8-0.4c0.2-0.1,0.5-0.1,1-0.2c0.9-0.1,1.5-0.2,1.9-0.4c0-0.1,0-0.2,0-0.3
			c0-0.4-0.1-0.7-0.3-0.9c-0.3-0.2-0.7-0.4-1.2-0.4c-0.5,0-0.9,0.1-1.1,0.3c-0.2,0.2-0.4,0.5-0.5,0.9l-1.1-0.1
			c0.1-0.4,0.3-0.8,0.5-1.1c0.2-0.3,0.5-0.5,1-0.6c0.4-0.2,0.9-0.2,1.4-0.2c0.5,0,1,0.1,1.3,0.2c0.3,0.1,0.6,0.3,0.7,0.5
			c0.2,0.2,0.3,0.4,0.3,0.7c0,0.2,0.1,0.5,0.1,1v1.4c0,1,0,1.6,0.1,1.9c0,0.3,0.1,0.5,0.3,0.8h-1.1C168.1,83.6,168.1,83.3,168,83"/>
		<path d="M173,82.8l0.2,0.9c-0.3,0.1-0.6,0.1-0.8,0.1c-0.4,0-0.7-0.1-0.9-0.2c-0.2-0.1-0.4-0.3-0.5-0.5c-0.1-0.2-0.1-0.6-0.1-1.3
			v-3.6H170v-0.8h0.8v-1.6l1.1-0.6v2.2h1.1v0.8h-1.1V82c0,0.3,0,0.5,0.1,0.6l0.2,0.2c0.1,0.1,0.2,0.1,0.4,0.1
			C172.6,82.9,172.8,82.8,173,82.8"/>
		<path d="M174,83.8h1.1v-6.3H174V83.8z M174,76.3h1.1V75H174V76.3z"/>
		<path d="M177.3,80.6c0,0.8,0.2,1.4,0.5,1.8c0.4,0.4,0.8,0.6,1.3,0.6c0.5,0,1-0.2,1.3-0.6c0.4-0.4,0.5-1,0.5-1.9
			c0-0.8-0.2-1.4-0.5-1.8c-0.4-0.4-0.8-0.6-1.3-0.6c-0.5,0-1,0.2-1.3,0.6C177.5,79.2,177.3,79.8,177.3,80.6 M176.2,80.6
			c0-1.2,0.3-2,1-2.6c0.5-0.5,1.2-0.7,2-0.7c0.9,0,1.6,0.3,2.1,0.9c0.6,0.6,0.8,1.4,0.8,2.4c0,0.8-0.1,1.5-0.4,1.9
			c-0.2,0.5-0.6,0.8-1.1,1.1c-0.5,0.3-1,0.4-1.5,0.4c-0.9,0-1.6-0.3-2.2-0.9C176.5,82.5,176.2,81.7,176.2,80.6"/>
		<path d="M183.4,83.8v-6.3h1v0.9c0.5-0.7,1.1-1,2-1c0.4,0,0.7,0.1,1,0.2c0.3,0.1,0.6,0.3,0.7,0.5c0.2,0.2,0.3,0.5,0.3,0.8
			c0,0.2,0.1,0.5,0.1,1v3.9h-1.1v-3.9c0-0.4,0-0.8-0.1-1c-0.1-0.2-0.2-0.4-0.4-0.5c-0.2-0.1-0.5-0.2-0.7-0.2c-0.5,0-0.9,0.1-1.2,0.4
			c-0.3,0.3-0.5,0.8-0.5,1.7v3.5"/>
		<path d="M197.5,80.6c-0.4,0.2-1,0.3-1.8,0.4c-0.4,0.1-0.8,0.1-0.9,0.2c-0.2,0.1-0.3,0.2-0.4,0.4c-0.1,0.2-0.1,0.3-0.1,0.5
			c0,0.3,0.1,0.5,0.3,0.7c0.2,0.2,0.5,0.3,1,0.3c0.4,0,0.8-0.1,1.1-0.3c0.3-0.2,0.6-0.4,0.7-0.7c0.1-0.2,0.2-0.6,0.2-1.1 M197.6,83
			c-0.4,0.3-0.8,0.6-1.2,0.7c-0.4,0.1-0.8,0.2-1.2,0.2c-0.7,0-1.2-0.2-1.6-0.5c-0.4-0.3-0.6-0.8-0.6-1.3c0-0.3,0.1-0.6,0.2-0.8
			c0.1-0.3,0.3-0.5,0.6-0.6c0.2-0.2,0.5-0.3,0.8-0.4c0.2-0.1,0.5-0.1,1-0.2c0.9-0.1,1.5-0.2,1.9-0.4c0-0.1,0-0.2,0-0.3
			c0-0.4-0.1-0.7-0.3-0.9c-0.3-0.2-0.7-0.4-1.2-0.4c-0.5,0-0.9,0.1-1.1,0.3c-0.2,0.2-0.4,0.5-0.5,0.9l-1-0.1
			c0.1-0.4,0.3-0.8,0.5-1.1c0.2-0.3,0.5-0.5,0.9-0.6c0.4-0.2,0.9-0.2,1.4-0.2c0.5,0,1,0.1,1.3,0.2c0.3,0.1,0.6,0.3,0.7,0.5
			c0.2,0.2,0.3,0.4,0.3,0.7c0,0.2,0.1,0.5,0.1,1v1.4c0,1,0,1.6,0.1,1.9c0,0.3,0.1,0.5,0.3,0.8h-1.1C197.7,83.6,197.6,83.3,197.6,83"
			/>
		<path d="M200.2,83.8v-6.3h1v0.9c0.5-0.7,1.1-1,2-1c0.4,0,0.7,0.1,1.1,0.2c0.3,0.1,0.6,0.3,0.7,0.5c0.2,0.2,0.3,0.5,0.3,0.8
			c0,0.2,0.1,0.5,0.1,1v3.9h-1.1v-3.9c0-0.4,0-0.8-0.1-1c-0.1-0.2-0.2-0.4-0.4-0.5c-0.2-0.1-0.5-0.2-0.7-0.2c-0.5,0-0.9,0.1-1.2,0.4
			c-0.3,0.3-0.5,0.8-0.5,1.7v3.5"/>
		<path d="M207.6,80.6c0,0.8,0.2,1.4,0.5,1.8c0.3,0.4,0.7,0.6,1.2,0.6c0.5,0,0.9-0.2,1.2-0.6c0.3-0.4,0.5-1,0.5-1.8
			c0-0.9-0.2-1.5-0.5-1.9c-0.3-0.4-0.7-0.6-1.2-0.6c-0.5,0-0.9,0.2-1.2,0.6C207.8,79.2,207.6,79.8,207.6,80.6 M211,83.8V83
			c-0.4,0.6-1,0.9-1.8,0.9c-0.5,0-1-0.1-1.4-0.4c-0.4-0.3-0.7-0.7-1-1.2c-0.2-0.5-0.3-1.1-0.3-1.7c0-0.6,0.1-1.2,0.3-1.7
			c0.2-0.5,0.5-0.9,0.9-1.2c0.4-0.3,0.9-0.4,1.4-0.4c0.4,0,0.7,0.1,1,0.2c0.3,0.2,0.5,0.4,0.7,0.6V75h1.1v8.7H211z"/>
		<polyline points="219.4,83.8 219.4,76.1 216.5,76.1 216.5,75 223.4,75 223.4,76.1 220.5,76.1 220.5,83.8 		"/>
		<path d="M224.4,83.8v-6.3h1v1c0.2-0.4,0.5-0.7,0.7-0.9c0.2-0.1,0.4-0.2,0.7-0.2c0.4,0,0.7,0.1,1.1,0.3l-0.4,1
			c-0.3-0.2-0.5-0.2-0.8-0.2c-0.2,0-0.4,0.1-0.6,0.2c-0.2,0.1-0.3,0.3-0.4,0.6c-0.1,0.4-0.2,0.8-0.2,1.3v3.3"/>
		<path d="M232.5,80.6c-0.4,0.2-1,0.3-1.8,0.4c-0.4,0.1-0.8,0.1-0.9,0.2c-0.2,0.1-0.3,0.2-0.4,0.4c-0.1,0.2-0.1,0.3-0.1,0.5
			c0,0.3,0.1,0.5,0.3,0.7c0.2,0.2,0.5,0.3,1,0.3c0.4,0,0.8-0.1,1.1-0.3c0.3-0.2,0.6-0.4,0.7-0.7c0.1-0.2,0.2-0.6,0.2-1.1 M232.5,83
			c-0.4,0.3-0.8,0.6-1.2,0.7c-0.4,0.1-0.8,0.2-1.2,0.2c-0.7,0-1.2-0.2-1.6-0.5c-0.4-0.3-0.6-0.8-0.6-1.3c0-0.3,0.1-0.6,0.2-0.8
			c0.1-0.3,0.3-0.5,0.6-0.6c0.2-0.2,0.5-0.3,0.8-0.4c0.2-0.1,0.5-0.1,1-0.2c0.9-0.1,1.5-0.2,1.9-0.4c0-0.1,0-0.2,0-0.3
			c0-0.4-0.1-0.7-0.3-0.9c-0.3-0.2-0.7-0.4-1.2-0.4c-0.5,0-0.9,0.1-1.1,0.3c-0.2,0.2-0.4,0.5-0.5,0.9l-1-0.1
			c0.1-0.4,0.3-0.8,0.5-1.1c0.2-0.3,0.5-0.5,1-0.6c0.4-0.2,0.9-0.2,1.4-0.2c0.5,0,1,0.1,1.3,0.2c0.3,0.1,0.6,0.3,0.7,0.5
			c0.2,0.2,0.3,0.4,0.3,0.7c0,0.2,0.1,0.5,0.1,1v1.4c0,1,0,1.6,0.1,1.9c0,0.3,0.1,0.5,0.3,0.8h-1.1C232.6,83.6,232.6,83.3,232.5,83"
			/>
		<path d="M235.2,83.8h1.1v-6.3h-1.1V83.8z M235.2,76.3h1.1V75h-1.1V76.3z"/>
		<path d="M237.8,83.8v-6.3h1v0.9c0.5-0.7,1.1-1,2-1c0.4,0,0.7,0.1,1.1,0.2c0.3,0.1,0.6,0.3,0.7,0.5c0.2,0.2,0.3,0.5,0.3,0.8
			c0,0.2,0.1,0.5,0.1,1v3.9h-1.1v-3.9c0-0.4,0-0.8-0.1-1c-0.1-0.2-0.2-0.4-0.4-0.5c-0.2-0.1-0.5-0.2-0.7-0.2c-0.5,0-0.9,0.1-1.2,0.4
			c-0.3,0.3-0.5,0.8-0.5,1.7v3.5"/>
		<path d="M244.5,83.8h1.1v-6.3h-1.1V83.8z M244.5,76.3h1.1V75h-1.1V76.3z"/>
		<path d="M247.2,83.8v-6.3h1v0.9c0.5-0.7,1.1-1,2-1c0.4,0,0.7,0.1,1,0.2c0.3,0.1,0.6,0.3,0.7,0.5c0.2,0.2,0.3,0.5,0.3,0.8
			c0,0.2,0.1,0.5,0.1,1v3.9h-1.1v-3.9c0-0.4,0-0.8-0.1-1c-0.1-0.2-0.2-0.4-0.4-0.5c-0.2-0.1-0.5-0.2-0.7-0.2c-0.5,0-0.9,0.1-1.2,0.4
			c-0.3,0.3-0.5,0.8-0.5,1.7v3.5"/>
		<path d="M254.6,80.5c0,0.8,0.2,1.4,0.5,1.8c0.3,0.4,0.7,0.6,1.2,0.6c0.5,0,0.9-0.2,1.2-0.6c0.3-0.4,0.5-1,0.5-1.8
			c0-0.8-0.2-1.4-0.5-1.8c-0.3-0.4-0.8-0.6-1.2-0.6c-0.5,0-0.9,0.2-1.2,0.6C254.8,79.2,254.6,79.7,254.6,80.5 M253.7,84.3l1,0.2
			c0,0.3,0.2,0.6,0.4,0.7c0.3,0.2,0.6,0.3,1.1,0.3c0.5,0,0.9-0.1,1.2-0.3c0.3-0.2,0.5-0.5,0.5-0.8c0.1-0.2,0.1-0.7,0.1-1.4
			c-0.5,0.6-1.1,0.8-1.8,0.8c-0.9,0-1.5-0.3-2-0.9c-0.5-0.6-0.7-1.4-0.7-2.3c0-0.6,0.1-1.2,0.3-1.7c0.2-0.5,0.5-0.9,0.9-1.2
			c0.4-0.3,0.9-0.4,1.5-0.4c0.7,0,1.4,0.3,1.8,0.9v-0.8h1v5.5c0,1-0.1,1.7-0.3,2.1c-0.2,0.4-0.5,0.7-1,1c-0.4,0.2-1,0.4-1.6,0.4
			c-0.8,0-1.4-0.2-1.8-0.5C253.9,85.5,253.7,85,253.7,84.3"/>
		<path d="M98.6,69.5h1.9c0.6,0,1-0.1,1.4-0.2c0.3-0.1,0.6-0.3,0.8-0.5c0.3-0.3,0.5-0.6,0.6-1.1c0.2-0.5,0.2-1,0.2-1.7
			c0-0.9-0.2-1.6-0.5-2.1c-0.3-0.5-0.7-0.8-1.1-1c-0.3-0.1-0.8-0.2-1.5-0.2h-1.8 M97.5,70.5v-8.8h3c0.7,0,1.2,0,1.6,0.1
			c0.5,0.1,0.9,0.3,1.3,0.6c0.5,0.4,0.8,0.9,1,1.5c0.2,0.6,0.3,1.3,0.3,2.1c0,0.7-0.1,1.3-0.2,1.8c-0.2,0.5-0.4,0.9-0.6,1.3
			c-0.2,0.3-0.5,0.6-0.8,0.8c-0.3,0.2-0.6,0.3-1,0.4c-0.4,0.1-0.9,0.1-1.4,0.1H97.5z"/>
		<path d="M107,66.7h3.5c0-0.5-0.2-0.9-0.4-1.2c-0.3-0.4-0.8-0.6-1.3-0.6c-0.5,0-0.9,0.2-1.2,0.5C107.2,65.7,107,66.2,107,66.7
			 M110.5,68.5l1.1,0.1c-0.2,0.6-0.5,1.2-1,1.5c-0.5,0.4-1.1,0.5-1.8,0.5c-0.9,0-1.7-0.3-2.2-0.9c-0.5-0.6-0.8-1.4-0.8-2.4
			c0-1.1,0.3-1.9,0.8-2.5c0.6-0.6,1.3-0.9,2.1-0.9c0.8,0,1.5,0.3,2.1,0.9c0.5,0.6,0.8,1.4,0.8,2.4c0,0.1,0,0.2,0,0.3h-4.7
			c0,0.7,0.2,1.2,0.6,1.6c0.4,0.4,0.8,0.6,1.3,0.6c0.4,0,0.7-0.1,1-0.3C110.1,69.3,110.3,68.9,110.5,68.5"/>
		<path d="M113.9,67.4c0,0.8,0.2,1.4,0.5,1.8c0.3,0.4,0.7,0.6,1.2,0.6c0.5,0,0.9-0.2,1.2-0.6c0.3-0.4,0.5-1,0.5-1.9
			c0-0.8-0.2-1.4-0.5-1.8c-0.3-0.4-0.7-0.6-1.2-0.6c-0.5,0-0.9,0.2-1.2,0.6C114.1,65.9,113.9,66.6,113.9,67.4 M112.9,72.9v-8.8h1V65
			c0.2-0.3,0.5-0.6,0.8-0.7c0.3-0.2,0.6-0.2,1.1-0.2c0.5,0,1,0.1,1.4,0.4c0.4,0.3,0.7,0.7,0.9,1.2c0.2,0.5,0.3,1.1,0.3,1.7
			c0,0.6-0.1,1.2-0.4,1.8c-0.2,0.5-0.6,0.9-1,1.2c-0.4,0.3-0.9,0.4-1.4,0.4c-0.4,0-0.7-0.1-1-0.2c-0.3-0.2-0.5-0.3-0.7-0.6v3.1
			H112.9z"/>
		<path d="M123.8,67.3c-0.4,0.2-1,0.3-1.8,0.4c-0.4,0.1-0.8,0.1-0.9,0.2c-0.2,0.1-0.3,0.2-0.4,0.4c-0.1,0.2-0.2,0.3-0.2,0.5
			c0,0.3,0.1,0.5,0.3,0.7c0.2,0.2,0.5,0.3,1,0.3c0.4,0,0.8-0.1,1.1-0.3c0.3-0.2,0.6-0.4,0.7-0.7c0.1-0.2,0.2-0.6,0.2-1.1
			 M123.9,69.7c-0.4,0.3-0.8,0.6-1.2,0.7c-0.4,0.1-0.8,0.2-1.2,0.2c-0.7,0-1.2-0.2-1.6-0.5c-0.4-0.3-0.6-0.8-0.6-1.3
			c0-0.3,0.1-0.6,0.2-0.8c0.1-0.3,0.3-0.5,0.6-0.6c0.2-0.2,0.5-0.3,0.8-0.4c0.2-0.1,0.5-0.1,1-0.2c0.9-0.1,1.5-0.2,1.9-0.4
			c0-0.1,0-0.2,0-0.3c0-0.4-0.1-0.7-0.3-0.9c-0.3-0.2-0.7-0.4-1.2-0.4c-0.5,0-0.9,0.1-1.1,0.3c-0.2,0.2-0.4,0.5-0.5,0.9l-1-0.1
			c0.1-0.5,0.3-0.8,0.5-1.1c0.2-0.3,0.5-0.5,0.9-0.6c0.4-0.2,0.9-0.2,1.4-0.2c0.5,0,1,0.1,1.3,0.2c0.3,0.1,0.6,0.3,0.7,0.5
			c0.2,0.2,0.3,0.4,0.3,0.7c0,0.2,0.1,0.5,0.1,1v1.4c0,1,0,1.6,0.1,1.9c0,0.3,0.1,0.5,0.3,0.8h-1.1C124,70.3,123.9,70,123.9,69.7"/>
		<path d="M126.5,70.5v-6.3h1v1c0.2-0.5,0.5-0.7,0.7-0.9c0.2-0.1,0.4-0.2,0.7-0.2c0.4,0,0.7,0.1,1.1,0.3l-0.4,1
			c-0.3-0.2-0.5-0.2-0.8-0.2c-0.2,0-0.4,0.1-0.6,0.2c-0.2,0.1-0.3,0.3-0.4,0.6c-0.1,0.4-0.2,0.8-0.2,1.3v3.3"/>
		<path d="M133,69.6l0.2,0.9c-0.3,0.1-0.6,0.1-0.8,0.1c-0.4,0-0.7-0.1-0.9-0.2c-0.2-0.1-0.4-0.3-0.5-0.5c-0.1-0.2-0.1-0.6-0.1-1.3
			V65H130v-0.8h0.8v-1.6l1.1-0.6v2.2h1.1V65h-1.1v3.7c0,0.3,0,0.5,0.1,0.6l0.2,0.2c0.1,0.1,0.2,0.1,0.4,0.1
			C132.6,69.6,132.8,69.6,133,69.6"/>
		<path d="M134,70.5v-6.3h1v0.9c0.2-0.3,0.5-0.6,0.8-0.7c0.3-0.2,0.7-0.3,1.1-0.3c0.5,0,0.9,0.1,1.2,0.3c0.3,0.2,0.5,0.5,0.6,0.8
			c0.5-0.7,1.2-1.1,2-1.1c0.6,0,1.1,0.2,1.5,0.5c0.3,0.3,0.5,0.9,0.5,1.6v4.4h-1.1v-4c0-0.4,0-0.7-0.1-0.9c-0.1-0.2-0.2-0.3-0.4-0.5
			c-0.2-0.1-0.4-0.2-0.6-0.2c-0.4,0-0.8,0.1-1.1,0.4c-0.3,0.3-0.4,0.8-0.4,1.4v3.7h-1.1v-4.1c0-0.5-0.1-0.8-0.3-1.1
			c-0.2-0.2-0.5-0.4-0.9-0.4c-0.3,0-0.6,0.1-0.8,0.2c-0.3,0.2-0.4,0.4-0.6,0.7c-0.1,0.3-0.2,0.7-0.2,1.3v3.3"/>
		<path d="M145,66.7h3.5c0-0.5-0.2-0.9-0.4-1.2c-0.3-0.4-0.8-0.6-1.3-0.6c-0.5,0-0.9,0.2-1.2,0.5C145.2,65.7,145,66.2,145,66.7
			 M148.5,68.5l1.1,0.1c-0.2,0.6-0.5,1.2-1,1.5c-0.5,0.4-1.1,0.5-1.8,0.5c-0.9,0-1.7-0.3-2.2-0.9c-0.5-0.6-0.8-1.4-0.8-2.4
			c0-1.1,0.3-1.9,0.8-2.5c0.5-0.6,1.3-0.9,2.1-0.9c0.8,0,1.5,0.3,2.1,0.9c0.5,0.6,0.8,1.4,0.8,2.4c0,0.1,0,0.2,0,0.3h-4.7
			c0,0.7,0.2,1.2,0.6,1.6c0.4,0.4,0.8,0.6,1.3,0.6c0.4,0,0.7-0.1,1-0.3C148.1,69.3,148.4,68.9,148.5,68.5"/>
		<path d="M151,70.5v-6.3h1v0.9c0.5-0.7,1.1-1,2-1c0.4,0,0.7,0.1,1.1,0.2c0.3,0.1,0.6,0.3,0.7,0.5c0.2,0.2,0.3,0.5,0.3,0.8
			c0,0.2,0.1,0.5,0.1,1v3.9h-1.1v-3.9c0-0.4,0-0.8-0.1-1c-0.1-0.2-0.2-0.4-0.4-0.5c-0.2-0.1-0.5-0.2-0.7-0.2c-0.5,0-0.9,0.1-1.2,0.4
			c-0.3,0.3-0.5,0.8-0.5,1.7v3.5"/>
		<path d="M160.1,69.6l0.2,0.9c-0.3,0.1-0.6,0.1-0.8,0.1c-0.4,0-0.7-0.1-0.9-0.2c-0.2-0.1-0.4-0.3-0.5-0.5c-0.1-0.2-0.1-0.6-0.1-1.3
			V65h-0.8v-0.8h0.8v-1.6L159,62v2.2h1.1V65H159v3.7c0,0.3,0,0.5,0.1,0.6l0.2,0.2c0.1,0.1,0.2,0.1,0.4,0.1
			C159.8,69.6,159.9,69.6,160.1,69.6"/>
		<path d="M161.5,70.5h1.2v-1.2h-1.2V70.5z M161.5,65.4h1.2v-1.2h-1.2V65.4z"/>
		<path d="M99.2,92.1h1.3c0.8,0,1.4,0,1.6-0.1c0.2-0.1,0.4-0.2,0.5-0.4c0.1-0.2,0.2-0.4,0.2-0.7c0-0.3-0.1-0.5-0.2-0.7
			c-0.2-0.2-0.4-0.3-0.7-0.3c-0.1,0-0.6,0-1.3,0h-1.4 M97.4,97.1v-8.7h3.7c0.9,0,1.6,0.1,2,0.2c0.4,0.2,0.8,0.4,1,0.8
			c0.3,0.4,0.4,0.9,0.4,1.4c0,0.7-0.2,1.2-0.6,1.6c-0.4,0.4-1,0.7-1.7,0.8c0.4,0.2,0.7,0.5,0.9,0.7c0.3,0.3,0.6,0.7,1,1.4l1.1,1.7
			h-2.1l-1.3-1.9c-0.5-0.7-0.8-1.1-0.9-1.3c-0.2-0.2-0.3-0.3-0.5-0.4c-0.2-0.1-0.5-0.1-0.9-0.1h-0.4v3.7H97.4z"/>
		<polyline points="106.2,97.1 106.2,88.4 112.7,88.4 112.7,89.8 108,89.8 108,91.8 112.4,91.8 112.4,93.2 108,93.2 108,95.6 
			112.9,95.6 112.9,97.1 		"/>
		<path d="M116.1,89.8v2.5h1c0.7,0,1.2,0,1.4-0.1c0.2-0.1,0.4-0.2,0.5-0.4c0.1-0.2,0.2-0.4,0.2-0.7c0-0.3-0.1-0.6-0.3-0.8
			c-0.2-0.2-0.4-0.3-0.7-0.4c-0.2,0-0.6-0.1-1.3-0.1 M114.4,97.1v-8.7h2.8c1.1,0,1.8,0,2.1,0.1c0.5,0.1,0.9,0.4,1.3,0.9
			c0.3,0.4,0.5,1,0.5,1.7c0,0.5-0.1,1-0.3,1.4c-0.2,0.4-0.4,0.7-0.7,0.9c-0.3,0.2-0.6,0.3-0.9,0.4c-0.4,0.1-1,0.1-1.8,0.1h-1.2v3.3
			H114.4z"/>
		<path d="M122.5,88.4h1.8v4.7c0,0.8,0,1.2,0.1,1.5c0.1,0.4,0.3,0.6,0.5,0.9c0.3,0.2,0.7,0.3,1.2,0.3c0.5,0,0.9-0.1,1.1-0.3
			c0.3-0.2,0.4-0.5,0.5-0.8c0.1-0.3,0.1-0.8,0.1-1.5v-4.8h1.8v4.6c0,1,0,1.8-0.1,2.2c-0.1,0.4-0.3,0.8-0.5,1.1
			c-0.3,0.3-0.6,0.5-1,0.7c-0.4,0.2-1,0.3-1.7,0.3c-0.8,0-1.5-0.1-1.9-0.3c-0.4-0.2-0.8-0.4-1-0.8c-0.3-0.3-0.4-0.6-0.5-1
			c-0.1-0.5-0.2-1.2-0.2-2.2"/>
		<path d="M133.1,93.3v2.3h1.6c0.6,0,1,0,1.2-0.1c0.3,0,0.5-0.2,0.6-0.3c0.2-0.2,0.3-0.4,0.3-0.7c0-0.3-0.1-0.5-0.2-0.7
			c-0.1-0.2-0.3-0.3-0.6-0.4c-0.2-0.1-0.8-0.1-1.6-0.1 M133.1,89.8v2h1.2c0.7,0,1.1,0,1.3,0c0.3,0,0.5-0.1,0.7-0.3
			c0.2-0.2,0.3-0.4,0.3-0.7c0-0.3-0.1-0.5-0.2-0.7c-0.1-0.2-0.4-0.3-0.7-0.3c-0.2,0-0.7,0-1.5,0H133.1z M131.3,88.4h3.5
			c0.7,0,1.2,0,1.5,0.1c0.3,0.1,0.6,0.2,0.9,0.4c0.3,0.2,0.5,0.4,0.7,0.7c0.2,0.3,0.3,0.6,0.3,1c0,0.4-0.1,0.8-0.3,1.1
			c-0.2,0.3-0.5,0.6-0.9,0.8c0.5,0.2,0.9,0.4,1.2,0.8c0.3,0.4,0.4,0.8,0.4,1.3c0,0.4-0.1,0.8-0.3,1.2c-0.2,0.4-0.4,0.7-0.8,0.9
			c-0.3,0.2-0.7,0.4-1.2,0.4c-0.3,0-1,0.1-2.1,0.1h-3V88.4z"/>
		<polyline points="140.2,97.1 140.2,88.4 142,88.4 142,95.6 146.4,95.6 146.4,97.1 		"/>
		<rect x="147.6" y="88.4" width="1.8" height="8.7"/>
		<path d="M156.6,93.9l1.7,0.5c-0.3,1-0.7,1.7-1.3,2.1c-0.6,0.5-1.4,0.7-2.3,0.7c-1.2,0-2.1-0.4-2.9-1.2c-0.7-0.8-1.1-1.9-1.1-3.3
			c0-1.5,0.4-2.6,1.1-3.4c0.8-0.8,1.7-1.2,3-1.2c1.1,0,1.9,0.3,2.6,0.9c0.4,0.4,0.7,0.9,0.9,1.6l-1.7,0.4c-0.1-0.5-0.3-0.8-0.6-1.1
			c-0.3-0.3-0.7-0.4-1.2-0.4c-0.6,0-1.2,0.2-1.6,0.7c-0.4,0.5-0.6,1.2-0.6,2.3c0,1.1,0.2,1.9,0.6,2.4c0.4,0.5,0.9,0.7,1.6,0.7
			c0.5,0,0.9-0.1,1.2-0.4C156.2,95,156.5,94.5,156.6,93.9"/>
		<path d="M164.7,92.7c0,1,0.2,1.7,0.7,2.3c0.5,0.5,1,0.8,1.7,0.8c0.7,0,1.3-0.3,1.7-0.8c0.5-0.5,0.7-1.3,0.7-2.3
			c0-1-0.2-1.7-0.7-2.2c-0.4-0.5-1-0.7-1.7-0.7c-0.7,0-1.3,0.3-1.8,0.8C164.9,91,164.7,91.7,164.7,92.7 M162.9,92.8
			c0-0.9,0.1-1.6,0.4-2.2c0.2-0.4,0.5-0.8,0.8-1.2c0.3-0.4,0.7-0.6,1.1-0.8c0.5-0.2,1.2-0.3,1.9-0.3c1.3,0,2.3,0.4,3.1,1.2
			c0.8,0.8,1.2,1.9,1.2,3.3c0,1.4-0.4,2.5-1.2,3.3c-0.8,0.8-1.8,1.2-3.1,1.2c-1.3,0-2.3-0.4-3.1-1.2
			C163.3,95.3,162.9,94.2,162.9,92.8"/>
		<polyline points="172.8,97.1 172.8,88.4 178.8,88.4 178.8,89.8 174.5,89.8 174.5,91.9 178.2,91.9 178.2,93.4 174.5,93.4 
			174.5,97.1 		"/>
		<path d="M183.2,94.3l1.7-0.2c0.1,0.6,0.3,1,0.6,1.3c0.3,0.3,0.7,0.4,1.3,0.4c0.6,0,1-0.1,1.3-0.4c0.3-0.2,0.4-0.5,0.4-0.8
			c0-0.2-0.1-0.4-0.2-0.5c-0.1-0.1-0.3-0.3-0.6-0.4c-0.2-0.1-0.7-0.2-1.4-0.4c-0.9-0.2-1.6-0.5-2-0.9c-0.5-0.5-0.8-1.1-0.8-1.8
			c0-0.4,0.1-0.9,0.4-1.2c0.3-0.4,0.6-0.7,1.1-0.9c0.5-0.2,1.1-0.3,1.7-0.3c1.1,0,1.9,0.2,2.5,0.7c0.6,0.5,0.8,1.1,0.9,1.9l-1.8,0.1
			c-0.1-0.4-0.2-0.8-0.5-1c-0.2-0.2-0.6-0.3-1.1-0.3c-0.5,0-0.9,0.1-1.2,0.3c-0.2,0.1-0.3,0.3-0.3,0.5c0,0.2,0.1,0.4,0.3,0.5
			c0.2,0.2,0.8,0.4,1.6,0.6c0.9,0.2,1.5,0.4,1.9,0.6c0.4,0.2,0.7,0.5,1,0.9c0.2,0.4,0.4,0.8,0.4,1.4c0,0.5-0.1,1-0.4,1.4
			c-0.3,0.4-0.7,0.8-1.2,1c-0.5,0.2-1.1,0.3-1.9,0.3c-1.1,0-2-0.3-2.5-0.8C183.6,96,183.3,95.2,183.2,94.3"/>
		<path d="M193.2,92.7c0,1,0.2,1.7,0.7,2.3c0.5,0.5,1,0.8,1.7,0.8c0.7,0,1.3-0.3,1.7-0.8c0.5-0.5,0.7-1.3,0.7-2.3
			c0-1-0.2-1.7-0.7-2.2c-0.4-0.5-1-0.7-1.7-0.7c-0.7,0-1.3,0.3-1.8,0.8C193.4,91,193.2,91.7,193.2,92.7 M191.4,92.8
			c0-0.9,0.1-1.6,0.4-2.2c0.2-0.4,0.5-0.8,0.8-1.2c0.3-0.4,0.7-0.6,1.1-0.8c0.5-0.2,1.2-0.3,1.9-0.3c1.3,0,2.3,0.4,3.1,1.2
			c0.8,0.8,1.2,1.9,1.2,3.3c0,1.4-0.4,2.5-1.2,3.3c-0.8,0.8-1.8,1.2-3.1,1.2c-1.3,0-2.3-0.4-3.1-1.2
			C191.8,95.3,191.4,94.2,191.4,92.8"/>
		<path d="M201.3,88.4h1.8v4.7c0,0.8,0,1.2,0.1,1.5c0.1,0.4,0.3,0.6,0.5,0.9c0.3,0.2,0.7,0.3,1.2,0.3c0.5,0,0.9-0.1,1.1-0.3
			c0.3-0.2,0.4-0.5,0.5-0.8c0.1-0.3,0.1-0.8,0.1-1.5v-4.8h1.8v4.6c0,1,0,1.8-0.1,2.2c-0.1,0.4-0.3,0.8-0.5,1.1
			c-0.3,0.3-0.6,0.5-1,0.7c-0.4,0.2-1,0.3-1.7,0.3c-0.8,0-1.5-0.1-1.9-0.3c-0.4-0.2-0.8-0.4-1-0.8c-0.3-0.3-0.4-0.6-0.5-1
			c-0.1-0.5-0.2-1.2-0.2-2.2"/>
		<polyline points="212.1,97.1 212.1,89.8 209.5,89.8 209.5,88.4 216.4,88.4 216.4,89.8 213.8,89.8 213.8,97.1 		"/>
		<polyline points="217.6,97.1 217.6,88.4 219.3,88.4 219.3,91.8 222.8,91.8 222.8,88.4 224.6,88.4 224.6,97.1 222.8,97.1 
			222.8,93.3 219.3,93.3 219.3,97.1 		"/>
		<path d="M234.4,93.6l-1.2-3.2l-1.2,3.2 M237.7,97.1h-1.9l-0.8-2h-3.5l-0.7,2h-1.9l3.4-8.7h1.9L237.7,97.1z"/>
		<polyline points="238.6,97.1 238.6,88.4 244.6,88.4 244.6,89.8 240.4,89.8 240.4,91.9 244,91.9 244,93.4 240.4,93.4 240.4,97.1 		
			"/>
		<path d="M247.8,92.1h1.3c0.8,0,1.4,0,1.6-0.1c0.2-0.1,0.4-0.2,0.5-0.4c0.1-0.2,0.2-0.4,0.2-0.7c0-0.3-0.1-0.5-0.2-0.7
			c-0.2-0.2-0.4-0.3-0.7-0.3c-0.1,0-0.6,0-1.3,0h-1.4 M246.1,97.1v-8.7h3.7c0.9,0,1.6,0.1,2,0.2c0.4,0.2,0.8,0.4,1,0.8
			c0.3,0.4,0.4,0.9,0.4,1.4c0,0.7-0.2,1.2-0.6,1.6c-0.4,0.4-1,0.7-1.7,0.8c0.4,0.2,0.7,0.5,0.9,0.7c0.3,0.3,0.6,0.7,1,1.4l1.1,1.7
			h-2.1l-1.3-1.9c-0.5-0.7-0.8-1.1-0.9-1.3c-0.2-0.2-0.3-0.3-0.5-0.4c-0.2-0.1-0.5-0.1-0.9-0.1h-0.4v3.7H246.1z"/>
		<rect x="254.8" y="88.4" width="1.8" height="8.7"/>
		<path d="M263.9,93.9l1.7,0.5c-0.3,1-0.7,1.7-1.3,2.1c-0.6,0.5-1.4,0.7-2.3,0.7c-1.2,0-2.1-0.4-2.9-1.2c-0.7-0.8-1.1-1.9-1.1-3.3
			c0-1.5,0.4-2.6,1.1-3.4c0.8-0.8,1.7-1.2,3-1.2c1.1,0,1.9,0.3,2.6,0.9c0.4,0.4,0.7,0.9,0.9,1.6l-1.7,0.4c-0.1-0.5-0.3-0.8-0.6-1.1
			c-0.3-0.3-0.7-0.4-1.2-0.4c-0.6,0-1.2,0.2-1.6,0.7c-0.4,0.5-0.6,1.2-0.6,2.3c0,1.1,0.2,1.9,0.6,2.4c0.4,0.5,0.9,0.7,1.6,0.7
			c0.5,0,0.9-0.1,1.2-0.4C263.5,95,263.7,94.5,263.9,93.9"/>
		<path d="M271.7,93.6l-1.2-3.2l-1.2,3.2 M275,97.1h-1.9l-0.8-2h-3.5l-0.7,2h-1.9l3.4-8.7h1.9L275,97.1z"/>
		<path d="M101.7,32.4c0-1,0.9-1.8,2.1-1.8c1.3,0,2.2,0.8,2.2,2c0,1-0.5,1.8-2.5,3.1C102.7,34.9,101.7,33.6,101.7,32.4 M105.9,42.6
			c-1.3,1.3-2.7,2.3-4.1,2.3c-1.2,0-2.3-0.9-2.4-2c0-1.5,1.2-2.5,3.4-3.8L105.9,42.6z M109.9,37.5c-0.4,1-1.3,2.3-2.1,3.1l-2.7-3.1
			c2.5-1.7,3.5-3.3,3.5-5.1c0-2.3-1.9-4.2-4.6-4.2c-3,0-4.9,1.8-4.9,4.4c0,1.6,1,3.3,2.2,4.5c-2.7,1.6-4.5,3.4-4.5,5.7
			c0,2.6,2.2,4.6,4.9,4.6c1.8,0,3.7-0.7,6.1-2.9l2.2,2.6h3.6l-3.9-4.5c1.4-1.6,2.6-3.5,3.1-5.1H109.9z"/>
		<path d="M124.1,31.8l-4.7,4.6v0.3h2.2v6.7c0,2.3,1.4,4,4.1,4c0.8,0,2.2-0.4,3-0.8v-2.3c-1,0.6-1.9,0.9-2.9,0.9
			c-0.7,0-1.8-0.4-1.8-1.9v-6.5h4v-2.3h-4"/>
		<path d="M129.7,34.4v12.7h2.5v-6.6c0-2.2,1.4-3.9,3.1-3.9c0.6,0,1.6,0.5,2.3,1.2l1.3-2.2c-1-1-2-1.5-3-1.5c-1.2,0-2.4,0.9-3.7,3.2
			h-0.1v-2.9"/>
		<path d="M145.2,44.6c-0.7,0.6-1.4,1-2.2,1c-1,0-1.8-0.7-1.8-1.8c0-1.5,1.9-2.2,4-3 M149.5,44.9c-0.6,0.4-1.1,0.7-1.3,0.7
			c-0.3,0-0.5-0.2-0.5-0.7v-6.5c0-2.9-2-4.2-4.6-4.2c-1.8,0-3.2,0.6-4.2,1.7v2.7c1.2-1.4,2.6-2.1,4-2.1c1.5,0,2.3,0.6,2.3,2.2v0.7
			l-2.2,0.8c-2,0.7-4.3,1.5-4.3,4c0,1.6,1.2,3.1,3.1,3.1c1.2,0,2.3-0.4,3.4-1.3c0.2,0.9,0.8,1.3,1.9,1.3c0.8,0,1.3-0.2,2.4-1V44.9z"
			/>
		<path d="M153.5,30.6c0-0.8-0.7-1.5-1.5-1.5c-0.8,0-1.5,0.7-1.5,1.5c0,0.8,0.7,1.5,1.5,1.5C152.9,32.1,153.5,31.4,153.5,30.6
			 M153.3,34.4h-2.5v12.7h2.5V34.4z"/>
		<path d="M158.3,34.4h-2.5v12.7h2.5V38c1.2-1.3,2.1-1.8,3.2-1.8c1.5,0,2.5,1.2,2.5,3.1v7.9h2.5v-7.8c0-3.5-1.9-5.1-4.3-5.1
			c-1.4,0-2.8,0.7-3.8,1.9h-0.1"/>
		<path d="M171.8,30.6c0-0.8-0.7-1.5-1.5-1.5c-0.8,0-1.5,0.7-1.5,1.5c0,0.8,0.7,1.5,1.5,1.5C171.1,32.1,171.8,31.4,171.8,30.6
			 M171.6,34.4H169v12.7h2.5V34.4z"/>
		<path d="M176.6,34.4h-2.5v12.7h2.5V38c1.2-1.3,2.1-1.8,3.2-1.8c1.5,0,2.5,1.2,2.5,3.1v7.9h2.5v-7.8c0-3.5-1.9-5.1-4.3-5.1
			c-1.4,0-2.8,0.7-3.8,1.9h-0.1"/>
		<path d="M194.9,49.8c0,1.2-1.3,1.8-3.5,1.8c-2.3,0-3.5-0.7-3.5-1.9c0-1.1,1.2-1.9,2.9-1.9C192.3,47.7,194.9,48.2,194.9,49.8
			 M193.8,38.8c0,1.4-1,2.4-2.4,2.4c-1.5,0-2.5-0.9-2.5-2.3c0-1.2,1.1-2.3,2.5-2.3C192.7,36.6,193.8,37.6,193.8,38.8 M197.4,34.4
			h-5.2c-3.4,0-5.5,1.7-5.5,4.4c0,0.9,0.2,1.7,0.7,2.4c0.5,0.7,1.2,1.2,2.1,1.6v0.1c-1.2,0.3-2,1-2,1.8c0,0.6,0.4,1.1,1.3,1.6
			c-2.2,0.5-3.2,1.6-3.2,3.5c0,2.2,2.4,3.8,5.8,3.8c3.8,0,6-1.5,6-4c0-1.6-1-3-3.7-3.5c-2.5-0.5-3.9-0.9-3.9-1.6
			c0-1.5,3.4-0.6,5.1-2.4c0.6-0.6,1.2-1.8,1.2-2.9c0-1.1-0.3-1.8-1.3-2.8h2.6V34.4z"/>
		<path d="M100.1,3.6h-2.5v19.3h2.5v-9.1c1.2-1.3,2.1-1.8,3.2-1.8c1.5,0,2.5,1.2,2.5,3.1v7.9h2.5v-7.8c0-3.5-1.8-5.2-4.3-5.2
			c-1.4,0-2.8,0.7-3.8,1.9h-0.1"/>
		<path d="M113.6,6.3c0-0.8-0.7-1.5-1.5-1.5c-0.8,0-1.5,0.7-1.5,1.5c0,0.8,0.7,1.5,1.5,1.5C112.9,7.8,113.6,7.2,113.6,6.3
			 M113.3,10.2h-2.5v12.7h2.5V10.2z"/>
		<path d="M123.6,25.5c0,1.2-1.3,1.8-3.5,1.8c-2.3,0-3.5-0.7-3.5-1.9c0-1.1,1.2-1.9,2.9-1.9C121,23.5,123.6,23.9,123.6,25.5
			 M122.5,14.6c0,1.4-1,2.4-2.4,2.4c-1.5,0-2.5-0.9-2.5-2.3c0-1.2,1.1-2.3,2.5-2.3C121.4,12.4,122.5,13.4,122.5,14.6 M126,10.2h-5.2
			c-3.4,0-5.5,1.7-5.5,4.4c0,0.9,0.2,1.7,0.7,2.4c0.5,0.7,1.2,1.2,2.1,1.6v0.1c-1.2,0.3-2,1-2,1.8c0,0.6,0.4,1.1,1.3,1.6
			c-2.2,0.5-3.2,1.6-3.2,3.5c0,2.2,2.4,3.8,5.8,3.8c3.8,0,6-1.5,6-4c0-1.6-1-3-3.7-3.5c-2.5-0.5-3.9-0.9-3.9-1.6
			c0-1.5,3.4-0.6,5.1-2.4c0.6-0.6,1.2-1.8,1.2-2.9c0-1.1-0.3-1.8-1.3-2.8h2.6V10.2z"/>
		<path d="M129.4,3.6h-2.5v19.3h2.5v-9.1c1.2-1.3,2.1-1.8,3.2-1.8c1.5,0,2.5,1.2,2.5,3.1v7.9h2.5v-7.8c0-3.5-1.8-5.2-4.3-5.2
			c-1.4,0-2.8,0.7-3.8,1.9h-0.1"/>
		<path d="M142,15.2c0.3-2,1.5-3.1,3.4-3.1c1.8,0,2.9,1.2,3,3.1 M150.7,19.2c-1.5,1-2.9,1.5-4.4,1.5c-2.4,0-3.9-1.3-4.3-3.8h8.9
			c0-4.7-2.1-7-5.5-7c-3.5,0-5.9,2.6-5.9,6.4c0,3.5,2.2,6.7,6.2,6.7c2.1,0,3.5-0.5,5.1-1.5V19.2z"/>
		<path d="M152.7,10.2v12.7h2.5v-6.6c0-2.2,1.4-3.9,3.1-3.9c0.6,0,1.6,0.5,2.3,1.2l1.3-2.2c-1-1-2-1.5-3-1.5c-1.2,0-2.4,0.9-3.7,3.2
			h-0.1v-2.9"/>
		<path d="M171.5,15.2c0.3-2,1.5-3.1,3.4-3.1c1.8,0,2.9,1.2,3,3.1 M180.2,19.2c-1.5,1-2.9,1.5-4.4,1.5c-2.4,0-3.9-1.3-4.3-3.8h8.9
			c0-4.7-2.1-7-5.5-7c-3.5,0-5.9,2.6-5.9,6.4c0,3.5,2.2,6.7,6.2,6.7c2.1,0,3.5-0.5,5.1-1.5V19.2z"/>
		<path d="M190.5,20.7H188c-2.9,0-3.9-1.8-3.9-4.2c0-2.7,1.6-4.4,4.1-4.4c0.8,0,1.5,0.1,2.3,0.5 M193,3.6h-2.5v6.8
			c-1-0.4-1.8-0.5-2.7-0.5c-3.7,0-6.3,2.6-6.3,6.3c0,4.1,2.4,6.6,6.2,6.6h5.3V3.6z"/>
		<path d="M206,22.9V10.2h-2.5v9.1c-0.8,1.2-1.9,1.8-3,1.8c-1.7,0-2.6-1-2.6-2.8v-8h-2.5v7.9c0,3.2,1.8,5.1,4.4,5.1
			c1.2,0,2.7-0.7,3.8-1.9v1.6"/>
		<path d="M217.9,10.8c-1.2-0.5-2.2-0.9-3.7-0.9c-3.8,0-6.3,2.7-6.3,6.8c0,3.7,2.7,6.4,6.4,6.4c1.3,0,2.9-0.3,3.8-0.7v-2.5
			c-1.3,0.6-2.3,0.8-3.4,0.8c-2.6,0-4.3-1.6-4.3-4.2c0-2.6,1.6-4.3,3.9-4.3c1.1,0,2.1,0.3,3.5,1.2"/>
		<path d="M225.4,20.3c-0.7,0.6-1.4,1-2.2,1c-1,0-1.8-0.7-1.8-1.8c0-1.5,1.9-2.2,4-3 M229.8,20.6c-0.6,0.4-1.1,0.7-1.3,0.7
			c-0.3,0-0.5-0.2-0.5-0.7v-6.5c0-2.9-2-4.2-4.6-4.2c-1.8,0-3.2,0.6-4.2,1.7v2.7c1.2-1.4,2.6-2.1,4-2.1c1.5,0,2.3,0.6,2.3,2.2v0.7
			l-2.2,0.8c-2,0.7-4.3,1.5-4.3,4c0,1.6,1.2,3.1,3.1,3.1c1.2,0,2.3-0.4,3.4-1.3c0.2,0.9,0.8,1.3,1.9,1.3c0.8,0,1.3-0.2,2.4-1V20.6z"
			/>
		<path d="M233.9,7.6l-4.7,4.6v0.3h2.2v6.7c0,2.3,1.4,4,4.1,4c0.8,0,2.2-0.4,3-0.8v-2.3c-1,0.6-1.9,0.9-2.9,0.9
			c-0.7,0-1.8-0.4-1.8-1.9v-6.5h4v-2.3h-4"/>
		<path d="M242.2,6.3c0-0.8-0.7-1.5-1.5-1.5c-0.8,0-1.5,0.7-1.5,1.5c0,0.8,0.7,1.5,1.5,1.5C241.5,7.8,242.2,7.2,242.2,6.3
			 M241.9,10.2h-2.5v12.7h2.5V10.2z"/>
		<path d="M250.4,12.2c2.5,0,4.3,1.8,4.3,4.2c0,2.7-1.7,4.4-4.3,4.4c-2.4,0-4.1-1.8-4.1-4.5C246.3,14,248.1,12.2,250.4,12.2
			 M250.5,9.9c-3.8,0-6.7,2.8-6.7,6.5c0,3.9,2.8,6.7,6.7,6.7c4.1,0,6.9-2.7,6.9-6.7C257.3,12.6,254.4,9.9,250.5,9.9"/>
		<path d="M261.6,10.2H259v12.7h2.5v-9.1c1.2-1.3,2.1-1.8,3.2-1.8c1.5,0,2.5,1.2,2.5,3.1v7.9h2.5V15c0-3.5-1.9-5.1-4.3-5.1
			c-1.4,0-2.8,0.7-3.8,1.9h-0.1"/>
	</g>
</g>
</svg>
